<?xml version="1.0" standalone="no"?>
<!DOCTYPE svg PUBLIC "-//W3C//DTD SVG 20010904//EN"
 "http://www.w3.org/TR/2001/REC-SVG-20010904/DTD/svg10.dtd">
<svg version="1.0" xmlns="http://www.w3.org/2000/svg"
 width="260.000000pt" height="260.000000pt" viewBox="0 0 260.000000 260.000000"
 preserveAspectRatio="xMidYMid meet">
<metadata>
Created by potrace 1.14, written by Peter Selinger 2001-2017
</metadata>
<g transform="translate(0.000000,260.000000) scale(0.100000,-0.100000)"
fill="#000000" stroke="none">
<path d="M7 2593 c-4 -3 -7 -588 -7 -1300 l0 -1293 1298 2 1297 3 3 1298 2
1297 -1293 0 c-712 0 -1297 -3 -1300 -7z m2168 -203 c64 -13 105 -45 105 -81
0 -27 -34 -92 -64 -122 -13 -13 -31 -48 -41 -78 -28 -85 -54 -130 -104 -182
-55 -58 -74 -69 -189 -107 -193 -64 -345 -119 -355 -129 -8 -8 0 -11 26 -11
26 0 37 -4 37 -15 0 -19 -32 -40 -95 -61 -73 -24 -559 -269 -635 -319 -97 -65
-174 -142 -195 -198 -17 -45 -17 -50 -2 -82 18 -39 49 -57 126 -75 125 -29
277 8 528 130 350 171 349 169 113 121 -231 -47 -239 -28 -80 172 103 130 103
130 255 152 55 8 118 19 140 25 105 26 464 93 494 92 77 -2 77 -39 1 -206 -28
-61 -50 -115 -50 -121 0 -26 -74 -162 -138 -253 -39 -55 -102 -164 -142 -243
-40 -79 -90 -174 -111 -211 -22 -37 -55 -101 -74 -141 -19 -40 -45 -85 -59
-99 -28 -31 -97 -68 -192 -102 -38 -13 -93 -35 -121 -47 -57 -25 -76 -20 -48
11 17 18 17 20 1 20 -9 0 -34 -9 -56 -20 -41 -21 -149 -50 -187 -50 -34 0 -29
28 19 106 61 101 98 179 98 208 0 14 13 40 28 58 46 54 92 121 92 134 0 9 -17
5 -55 -12 -31 -13 -62 -24 -69 -24 -7 0 -35 -9 -62 -19 -84 -34 -336 -109
-409 -122 -38 -7 -136 -13 -216 -13 -139 0 -148 1 -203 28 -65 32 -130 105
-140 158 -3 18 -2 85 3 148 7 95 14 128 40 190 42 100 100 195 154 256 24 27
54 67 66 89 12 22 38 51 57 64 19 14 54 45 77 71 23 26 61 59 85 74 23 14 59
45 79 67 20 22 49 47 65 55 16 8 53 37 83 64 30 27 69 57 87 66 18 9 49 29 68
44 19 15 60 40 90 56 30 15 82 46 115 69 33 23 93 59 133 80 40 21 94 57 120
80 26 23 69 52 96 64 28 12 64 32 80 44 66 49 398 170 446 163 14 -2 52 -9 85
-16z"/>
</g>
</svg>
