<svg xmlns="http://www.w3.org/2000/svg" xmlns:xlink="http://www.w3.org/1999/xlink" width="27.5" height="30" viewBox="0 0 27.5 30">
  <defs>
    <filter id="Icon_awesome-calendar-alt" x="0" y="0" width="27.5" height="30" filterUnits="userSpaceOnUse">
      <feOffset input="SourceAlpha"/>
      <feGaussianBlur stdDeviation="1.5" result="blur"/>
      <feFlood flood-color="#03d5fb"/>
      <feComposite operator="in" in2="blur"/>
    </filter>
    <filter id="Icon_awesome-calendar-alt-2" x="0" y="0" width="27.5" height="30" filterUnits="userSpaceOnUse">
      <feOffset input="SourceAlpha"/>
      <feGaussianBlur stdDeviation="1" result="blur-2"/>
      <feFlood flood-color="#03d5fb" result="color"/>
      <feComposite operator="out" in="SourceGraphic" in2="blur-2"/>
      <feComposite operator="in" in="color"/>
      <feComposite operator="in" in2="SourceGraphic"/>
    </filter>
  </defs>
  <g data-type="innerShadowGroup">
    <g transform="matrix(1, 0, 0, 1, 0, 0)" filter="url(#Icon_awesome-calendar-alt)">
      <path id="Icon_awesome-calendar-alt-3" data-name="Icon awesome-calendar-alt" d="M0,18.125A1.875,1.875,0,0,0,1.875,20h13.75A1.875,1.875,0,0,0,17.5,18.125V7.5H0Zm12.5-7.656A.47.47,0,0,1,12.969,10h1.563a.47.47,0,0,1,.469.469v1.563a.47.47,0,0,1-.469.469H12.969a.47.47,0,0,1-.469-.469Zm0,5A.47.47,0,0,1,12.969,15h1.563a.47.47,0,0,1,.469.469v1.563a.47.47,0,0,1-.469.469H12.969a.47.47,0,0,1-.469-.469Zm-5-5A.47.47,0,0,1,7.969,10H9.531a.47.47,0,0,1,.469.469v1.563a.47.47,0,0,1-.469.469H7.969a.47.47,0,0,1-.469-.469Zm0,5A.47.47,0,0,1,7.969,15H9.531a.47.47,0,0,1,.469.469v1.563a.47.47,0,0,1-.469.469H7.969a.47.47,0,0,1-.469-.469Zm-5-5A.47.47,0,0,1,2.969,10H4.531A.47.47,0,0,1,5,10.469v1.563a.47.47,0,0,1-.469.469H2.969a.47.47,0,0,1-.469-.469Zm0,5A.47.47,0,0,1,2.969,15H4.531A.47.47,0,0,1,5,15.469v1.563a.47.47,0,0,1-.469.469H2.969a.47.47,0,0,1-.469-.469ZM15.625,2.5H13.75V.625A.627.627,0,0,0,13.125,0h-1.25a.627.627,0,0,0-.625.625V2.5h-5V.625A.627.627,0,0,0,5.625,0H4.375A.627.627,0,0,0,3.75.625V2.5H1.875A1.875,1.875,0,0,0,0,4.375V6.25H17.5V4.375A1.875,1.875,0,0,0,15.625,2.5Z" transform="translate(5 5)" fill="none" stroke="#03d5fb" stroke-width="1"/>
    </g>
    <g transform="matrix(1, 0, 0, 1, 0, 0)" filter="url(#Icon_awesome-calendar-alt-2)">
      <path id="Icon_awesome-calendar-alt-4" data-name="Icon awesome-calendar-alt" d="M0,18.125A1.875,1.875,0,0,0,1.875,20h13.75A1.875,1.875,0,0,0,17.5,18.125V7.5H0Zm12.5-7.656A.47.47,0,0,1,12.969,10h1.563a.47.47,0,0,1,.469.469v1.563a.47.47,0,0,1-.469.469H12.969a.47.47,0,0,1-.469-.469Zm0,5A.47.47,0,0,1,12.969,15h1.563a.47.47,0,0,1,.469.469v1.563a.47.47,0,0,1-.469.469H12.969a.47.47,0,0,1-.469-.469Zm-5-5A.47.47,0,0,1,7.969,10H9.531a.47.47,0,0,1,.469.469v1.563a.47.47,0,0,1-.469.469H7.969a.47.47,0,0,1-.469-.469Zm0,5A.47.47,0,0,1,7.969,15H9.531a.47.47,0,0,1,.469.469v1.563a.47.47,0,0,1-.469.469H7.969a.47.47,0,0,1-.469-.469Zm-5-5A.47.47,0,0,1,2.969,10H4.531A.47.47,0,0,1,5,10.469v1.563a.47.47,0,0,1-.469.469H2.969a.47.47,0,0,1-.469-.469Zm0,5A.47.47,0,0,1,2.969,15H4.531A.47.47,0,0,1,5,15.469v1.563a.47.47,0,0,1-.469.469H2.969a.47.47,0,0,1-.469-.469ZM15.625,2.5H13.75V.625A.627.627,0,0,0,13.125,0h-1.25a.627.627,0,0,0-.625.625V2.5h-5V.625A.627.627,0,0,0,5.625,0H4.375A.627.627,0,0,0,3.75.625V2.5H1.875A1.875,1.875,0,0,0,0,4.375V6.25H17.5V4.375A1.875,1.875,0,0,0,15.625,2.5Z" transform="translate(5 5)" fill="#fff"/>
    </g>
    <path id="Icon_awesome-calendar-alt-5" data-name="Icon awesome-calendar-alt" d="M0,18.125A1.875,1.875,0,0,0,1.875,20h13.75A1.875,1.875,0,0,0,17.5,18.125V7.5H0Zm12.5-7.656A.47.47,0,0,1,12.969,10h1.563a.47.47,0,0,1,.469.469v1.563a.47.47,0,0,1-.469.469H12.969a.47.47,0,0,1-.469-.469Zm0,5A.47.47,0,0,1,12.969,15h1.563a.47.47,0,0,1,.469.469v1.563a.47.47,0,0,1-.469.469H12.969a.47.47,0,0,1-.469-.469Zm-5-5A.47.47,0,0,1,7.969,10H9.531a.47.47,0,0,1,.469.469v1.563a.47.47,0,0,1-.469.469H7.969a.47.47,0,0,1-.469-.469Zm0,5A.47.47,0,0,1,7.969,15H9.531a.47.47,0,0,1,.469.469v1.563a.47.47,0,0,1-.469.469H7.969a.47.47,0,0,1-.469-.469Zm-5-5A.47.47,0,0,1,2.969,10H4.531A.47.47,0,0,1,5,10.469v1.563a.47.47,0,0,1-.469.469H2.969a.47.47,0,0,1-.469-.469Zm0,5A.47.47,0,0,1,2.969,15H4.531A.47.47,0,0,1,5,15.469v1.563a.47.47,0,0,1-.469.469H2.969a.47.47,0,0,1-.469-.469ZM15.625,2.5H13.75V.625A.627.627,0,0,0,13.125,0h-1.25a.627.627,0,0,0-.625.625V2.5h-5V.625A.627.627,0,0,0,5.625,0H4.375A.627.627,0,0,0,3.75.625V2.5H1.875A1.875,1.875,0,0,0,0,4.375V6.25H17.5V4.375A1.875,1.875,0,0,0,15.625,2.5Z" transform="translate(5 5)" fill="none" stroke="#03d5fb" stroke-width="1"/>
  </g>
</svg>
