<svg xmlns="http://www.w3.org/2000/svg" xmlns:xlink="http://www.w3.org/1999/xlink" width="38" height="38" viewBox="0 0 38 38">
  <defs>
    <filter id="Icon_awesome-link" x="0" y="0" width="38" height="38" filterUnits="userSpaceOnUse">
      <feOffset input="SourceAlpha"/>
      <feGaussianBlur stdDeviation="2" result="blur"/>
      <feFlood flood-color="#03d5fb"/>
      <feComposite operator="in" in2="blur"/>
    </filter>
    <filter id="Icon_awesome-link-2" x="0" y="0" width="38" height="38" filterUnits="userSpaceOnUse">
      <feOffset input="SourceAlpha"/>
      <feGaussianBlur stdDeviation="0.5" result="blur-2"/>
      <feFlood flood-color="#03d5fb" result="color"/>
      <feComposite operator="out" in="SourceGraphic" in2="blur-2"/>
      <feComposite operator="in" in="color"/>
      <feComposite operator="in" in2="SourceGraphic"/>
    </filter>
  </defs>
  <g data-type="innerShadowGroup">
    <g transform="matrix(1, 0, 0, 1, 0, 0)" filter="url(#Icon_awesome-link)">
      <path id="Icon_awesome-link-3" data-name="Icon awesome-link" d="M15.948,9.052a7.418,7.418,0,0,1,.018,10.478l-.018.018L12.667,22.83a7.422,7.422,0,0,1-10.5-10.5l1.812-1.812a.781.781,0,0,1,1.333.518,9,9,0,0,0,.473,2.574.786.786,0,0,1-.185.811l-.639.639a3.516,3.516,0,1,0,4.94,5l3.281-3.281a3.515,3.515,0,0,0,0-4.972,3.658,3.658,0,0,0-.5-.418.783.783,0,0,1-.339-.616,1.945,1.945,0,0,1,.571-1.455L13.941,8.3a.784.784,0,0,1,1.005-.085,7.445,7.445,0,0,1,1,.84ZM22.829,2.17a7.43,7.43,0,0,0-10.5,0L9.052,5.452l-.018.018a7.423,7.423,0,0,0,1.02,11.318.784.784,0,0,0,1.005-.085l1.028-1.028a1.945,1.945,0,0,0,.571-1.455.783.783,0,0,0-.339-.616,3.658,3.658,0,0,1-.5-.418,3.515,3.515,0,0,1,0-4.972L15.1,4.932a3.516,3.516,0,1,1,4.94,5l-.639.639a.786.786,0,0,0-.185.811,9,9,0,0,1,.473,2.574.781.781,0,0,0,1.333.518l1.812-1.812a7.43,7.43,0,0,0,0-10.5Z" transform="translate(6.5 6.5)" fill="none" stroke="#03d5fb" stroke-width="1"/>
    </g>
    <g transform="matrix(1, 0, 0, 1, 0, 0)" filter="url(#Icon_awesome-link-2)">
      <path id="Icon_awesome-link-4" data-name="Icon awesome-link" d="M15.948,9.052a7.418,7.418,0,0,1,.018,10.478l-.018.018L12.667,22.83a7.422,7.422,0,0,1-10.5-10.5l1.812-1.812a.781.781,0,0,1,1.333.518,9,9,0,0,0,.473,2.574.786.786,0,0,1-.185.811l-.639.639a3.516,3.516,0,1,0,4.94,5l3.281-3.281a3.515,3.515,0,0,0,0-4.972,3.658,3.658,0,0,0-.5-.418.783.783,0,0,1-.339-.616,1.945,1.945,0,0,1,.571-1.455L13.941,8.3a.784.784,0,0,1,1.005-.085,7.445,7.445,0,0,1,1,.84ZM22.829,2.17a7.43,7.43,0,0,0-10.5,0L9.052,5.452l-.018.018a7.423,7.423,0,0,0,1.02,11.318.784.784,0,0,0,1.005-.085l1.028-1.028a1.945,1.945,0,0,0,.571-1.455.783.783,0,0,0-.339-.616,3.658,3.658,0,0,1-.5-.418,3.515,3.515,0,0,1,0-4.972L15.1,4.932a3.516,3.516,0,1,1,4.94,5l-.639.639a.786.786,0,0,0-.185.811,9,9,0,0,1,.473,2.574.781.781,0,0,0,1.333.518l1.812-1.812a7.43,7.43,0,0,0,0-10.5Z" transform="translate(6.5 6.5)" fill="#fff"/>
    </g>
    <path id="Icon_awesome-link-5" data-name="Icon awesome-link" d="M15.948,9.052a7.418,7.418,0,0,1,.018,10.478l-.018.018L12.667,22.83a7.422,7.422,0,0,1-10.5-10.5l1.812-1.812a.781.781,0,0,1,1.333.518,9,9,0,0,0,.473,2.574.786.786,0,0,1-.185.811l-.639.639a3.516,3.516,0,1,0,4.94,5l3.281-3.281a3.515,3.515,0,0,0,0-4.972,3.658,3.658,0,0,0-.5-.418.783.783,0,0,1-.339-.616,1.945,1.945,0,0,1,.571-1.455L13.941,8.3a.784.784,0,0,1,1.005-.085,7.445,7.445,0,0,1,1,.84ZM22.829,2.17a7.43,7.43,0,0,0-10.5,0L9.052,5.452l-.018.018a7.423,7.423,0,0,0,1.02,11.318.784.784,0,0,0,1.005-.085l1.028-1.028a1.945,1.945,0,0,0,.571-1.455.783.783,0,0,0-.339-.616,3.658,3.658,0,0,1-.5-.418,3.515,3.515,0,0,1,0-4.972L15.1,4.932a3.516,3.516,0,1,1,4.94,5l-.639.639a.786.786,0,0,0-.185.811,9,9,0,0,1,.473,2.574.781.781,0,0,0,1.333.518l1.812-1.812a7.43,7.43,0,0,0,0-10.5Z" transform="translate(6.5 6.5)" fill="none" stroke="#03d5fb" stroke-width="1"/>
  </g>
</svg>
