<svg xmlns="http://www.w3.org/2000/svg" xmlns:xlink="http://www.w3.org/1999/xlink" width="51.715" height="41" viewBox="0 0 51.715 41">
  <defs>
    <filter id="Icon_awesome-money-bill-wave" x="0" y="0" width="51.715" height="41" filterUnits="userSpaceOnUse">
      <feOffset input="SourceAlpha"/>
      <feGaussianBlur stdDeviation="2.5" result="blur"/>
      <feFlood flood-color="#03d5fb"/>
      <feComposite operator="in" in2="blur"/>
    </filter>
    <filter id="Icon_awesome-money-bill-wave-2" x="0" y="0" width="51.715" height="41" filterUnits="userSpaceOnUse">
      <feOffset input="SourceAlpha"/>
      <feGaussianBlur stdDeviation="1" result="blur-2"/>
      <feFlood flood-color="#03d5fb" result="color"/>
      <feComposite operator="out" in="SourceGraphic" in2="blur-2"/>
      <feComposite operator="in" in="color"/>
      <feComposite operator="in" in2="SourceGraphic"/>
    </filter>
  </defs>
  <g data-type="innerShadowGroup">
    <g transform="matrix(1, 0, 0, 1, 0, 0)" filter="url(#Icon_awesome-money-bill-wave)">
      <path id="Icon_awesome-money-bill-wave-3" data-name="Icon awesome-money-bill-wave" d="M34.663,3.5a16.525,16.525,0,0,0-6.5-1.253c-6.873,0-13.746,3.479-20.619,3.479a16.931,16.931,0,0,1-5.17-.766,1.908,1.908,0,0,0-.578-.09A1.776,1.776,0,0,0,0,6.648v17.7A1.775,1.775,0,0,0,1.051,26a16.516,16.516,0,0,0,6.5,1.254c6.873,0,13.747-3.479,20.62-3.479a16.931,16.931,0,0,1,5.17.766,1.908,1.908,0,0,0,.578.09,1.776,1.776,0,0,0,1.8-1.775V5.148A1.777,1.777,0,0,0,34.663,3.5ZM2.679,7.843a19.42,19.42,0,0,0,3.5.5,3.576,3.576,0,0,1-3.5,2.876Zm0,15.9V21.08a3.57,3.57,0,0,1,3.555,3.426A13.481,13.481,0,0,1,2.679,23.747Zm15.179-3.64c-2.466,0-4.464-2.4-4.464-5.357s2-5.357,4.464-5.357,4.464,2.4,4.464,5.357S20.322,20.107,17.857,20.107Zm15.179,1.55A19.187,19.187,0,0,0,30,21.186a3.564,3.564,0,0,1,3.031-2.75Zm0-13.176a3.564,3.564,0,0,1-3.114-3.435,13.414,13.414,0,0,1,3.114.706Z" transform="translate(8 5.75)" fill="none" stroke="#03d5fb" stroke-width="1"/>
    </g>
    <g transform="matrix(1, 0, 0, 1, 0, 0)" filter="url(#Icon_awesome-money-bill-wave-2)">
      <path id="Icon_awesome-money-bill-wave-4" data-name="Icon awesome-money-bill-wave" d="M34.663,3.5a16.525,16.525,0,0,0-6.5-1.253c-6.873,0-13.746,3.479-20.619,3.479a16.931,16.931,0,0,1-5.17-.766,1.908,1.908,0,0,0-.578-.09A1.776,1.776,0,0,0,0,6.648v17.7A1.775,1.775,0,0,0,1.051,26a16.516,16.516,0,0,0,6.5,1.254c6.873,0,13.747-3.479,20.62-3.479a16.931,16.931,0,0,1,5.17.766,1.908,1.908,0,0,0,.578.09,1.776,1.776,0,0,0,1.8-1.775V5.148A1.777,1.777,0,0,0,34.663,3.5ZM2.679,7.843a19.42,19.42,0,0,0,3.5.5,3.576,3.576,0,0,1-3.5,2.876Zm0,15.9V21.08a3.57,3.57,0,0,1,3.555,3.426A13.481,13.481,0,0,1,2.679,23.747Zm15.179-3.64c-2.466,0-4.464-2.4-4.464-5.357s2-5.357,4.464-5.357,4.464,2.4,4.464,5.357S20.322,20.107,17.857,20.107Zm15.179,1.55A19.187,19.187,0,0,0,30,21.186a3.564,3.564,0,0,1,3.031-2.75Zm0-13.176a3.564,3.564,0,0,1-3.114-3.435,13.414,13.414,0,0,1,3.114.706Z" transform="translate(8 5.75)" fill="#fff"/>
    </g>
    <path id="Icon_awesome-money-bill-wave-5" data-name="Icon awesome-money-bill-wave" d="M34.663,3.5a16.525,16.525,0,0,0-6.5-1.253c-6.873,0-13.746,3.479-20.619,3.479a16.931,16.931,0,0,1-5.17-.766,1.908,1.908,0,0,0-.578-.09A1.776,1.776,0,0,0,0,6.648v17.7A1.775,1.775,0,0,0,1.051,26a16.516,16.516,0,0,0,6.5,1.254c6.873,0,13.747-3.479,20.62-3.479a16.931,16.931,0,0,1,5.17.766,1.908,1.908,0,0,0,.578.09,1.776,1.776,0,0,0,1.8-1.775V5.148A1.777,1.777,0,0,0,34.663,3.5ZM2.679,7.843a19.42,19.42,0,0,0,3.5.5,3.576,3.576,0,0,1-3.5,2.876Zm0,15.9V21.08a3.57,3.57,0,0,1,3.555,3.426A13.481,13.481,0,0,1,2.679,23.747Zm15.179-3.64c-2.466,0-4.464-2.4-4.464-5.357s2-5.357,4.464-5.357,4.464,2.4,4.464,5.357S20.322,20.107,17.857,20.107Zm15.179,1.55A19.187,19.187,0,0,0,30,21.186a3.564,3.564,0,0,1,3.031-2.75Zm0-13.176a3.564,3.564,0,0,1-3.114-3.435,13.414,13.414,0,0,1,3.114.706Z" transform="translate(8 5.75)" fill="none" stroke="#03d5fb" stroke-width="1"/>
  </g>
</svg>
