<svg xmlns="http://www.w3.org/2000/svg" width="24" height="22.667" viewBox="0 0 24 22.667">
  <path id="Icon_awesome-reddit-alien" data-name="Icon awesome-reddit-alien" d="M22.642,10.923a2.694,2.694,0,0,0-1.917.8,13,13,0,0,0-6.935-2.14l1.4-6.313,4.462,1a1.986,1.986,0,0,0,1.983,1.983,2.008,2.008,0,1,0-1.786-2.9L14.923,2.263a.471.471,0,0,0-.556.359l-1.538,6.96a13.163,13.163,0,0,0-6.895,2.165,2.667,2.667,0,1,0-3.1,4.239A5.662,5.662,0,0,0,2.7,17.236c0,4.239,4.775,7.674,10.638,7.674C19.228,24.91,24,21.475,24,17.236a4.826,4.826,0,0,0-.157-1.27A2.663,2.663,0,0,0,22.642,10.923ZM6.916,16.255a2,2,0,1,1,2.008,1.983,2,2,0,0,1-2.008-1.983Zm10.84,4.73c-1.841,1.841-7.036,1.841-8.878,0a.471.471,0,0,1,0-.693.486.486,0,0,1,.668,0c1.406,1.442,6.07,1.467,7.537,0a.486.486,0,0,1,.668,0A.467.467,0,0,1,17.756,20.985Zm-.04-2.742a2,2,0,1,1,2.008-1.983A1.986,1.986,0,0,1,17.715,18.243Z" transform="translate(-1.319 -2.243)" fill="#03d5fb"/>
</svg>
