<svg xmlns="http://www.w3.org/2000/svg" xmlns:xlink="http://www.w3.org/1999/xlink" width="183" height="81" viewBox="0 0 183 81">
  <defs>
    <filter id="Union_2" x="0" y="0" width="183" height="81" filterUnits="userSpaceOnUse">
      <feOffset input="SourceAlpha"/>
      <feGaussianBlur stdDeviation="3.5" result="blur"/>
      <feFlood flood-color="#03d5fb"/>
      <feComposite operator="in" in2="blur"/>
    </filter>
    <filter id="Union_2-2" x="0" y="0" width="183" height="81" filterUnits="userSpaceOnUse">
      <feOffset input="SourceAlpha"/>
      <feGaussianBlur stdDeviation="2.5" result="blur-2"/>
      <feFlood flood-color="#03d5fb" result="color"/>
      <feComposite operator="out" in="SourceGraphic" in2="blur-2"/>
      <feComposite operator="in" in="color"/>
      <feComposite operator="in" in2="SourceGraphic"/>
    </filter>
  </defs>
  <g data-type="innerShadowGroup">
    <g transform="matrix(1, 0, 0, 1, 0, 0)" filter="url(#Union_2)">
      <g id="Union_2-3" data-name="Union 2" transform="translate(10.5 10.5)" fill="none">
        <path d="M5,60a5,5,0,0,1-5-5V45a5,5,0,0,1,5-5H55a5,5,0,0,1,5,5V55a5,5,0,0,1-5,5Zm76-9.5V11H60V10h42V5a5,5,0,0,1,5-5h50a5,5,0,0,1,5,5V15a5,5,0,0,1-5,5H107a5,5,0,0,1-5-5V11H82V50.5Zm-21,0v-1H81v1ZM5,20a5,5,0,0,1-5-5V5A5,5,0,0,1,5,0H55a5,5,0,0,1,5,5V15a5,5,0,0,1-5,5Z" stroke="none"/>
        <path d="M 54.99989700317383 59.00029754638672 C 57.20573043823242 59.00029754638672 59.00028991699219 57.20573425292969 59.00028991699219 54.99990081787109 L 59.00028991699219 45.00000381469727 C 59.00028991699219 42.79417037963867 57.20573043823242 40.99961090087891 54.99989700317383 40.99961090087891 L 5.000395774841309 40.99961090087891 C 2.794562578201294 40.99961090087891 1 42.79417037963867 1 45.00000381469727 L 1 54.99990081787109 C 1 57.20573425292969 2.794562578201294 59.00029754638672 5.000395774841309 59.00029754638672 L 54.99989700317383 59.00029754638672 M 156.9996032714844 18.99979591369629 C 159.2054443359375 18.99979591369629 161 17.20562934875488 161 15.0002965927124 L 161 5.000400543212891 C 161 2.794567346572876 159.2054443359375 1.000004887580872 156.9996032714844 1.000004887580872 L 107.0001068115234 1.000004887580872 C 104.7942733764648 1.000004887580872 102.9997100830078 2.794567346572876 102.9997100830078 5.000400543212891 L 102.9997100830078 15.0002965927124 C 102.9997100830078 17.20562934875488 104.7942733764648 18.99979591369629 107.0001068115234 18.99979591369629 L 156.9996032714844 18.99979591369629 M 54.99989700317383 18.99979591369629 C 57.20573043823242 18.99979591369629 59.00028991699219 17.20562934875488 59.00028991699219 15.0002965927124 L 59.00028991699219 5.000400543212891 C 59.00028991699219 2.794567346572876 57.20573043823242 1.000004887580872 54.99989700317383 1.000004887580872 L 5.000395774841309 1.000004887580872 C 2.794562578201294 1.000004887580872 1 2.794567346572876 1 5.000400543212891 L 1 15.0002965927124 C 1 17.20562934875488 2.794562578201294 18.99979591369629 5.000395774841309 18.99979591369629 L 54.99989700317383 18.99979591369629 M 54.99989700317383 60.00029754638672 L 5.000395774841309 60.00029754638672 C 2.23829174041748 60.00029754638672 1.4210854715202e-14 57.7611083984375 1.4210854715202e-14 54.99990081787109 L 1.4210854715202e-14 45.00000381469727 C 1.4210854715202e-14 42.23879623413086 2.23829174041748 39.99961090087891 5.000395774841309 39.99961090087891 L 54.99989700317383 39.99961090087891 C 57.76110458374023 39.99961090087891 60.00028991699219 42.23879623413086 60.00028991699219 45.00000381469727 L 60.00028991699219 54.99990081787109 C 60.00028991699219 57.7611083984375 57.76110458374023 60.00029754638672 54.99989700317383 60.00029754638672 Z M 81.99989318847656 50.49990081787109 L 81 50.49990081787109 L 81 10.99979686737061 L 60.00028991699219 10.99979686737061 L 60.00028991699219 9.999900817871094 L 101.9997100830078 9.999900817871094 L 101.9997100830078 5.000400543212891 C 101.9997100830078 2.238296508789062 104.238899230957 4.847208856517682e-06 107.0001068115234 4.847208856517682e-06 L 156.9996032714844 4.847208856517682e-06 C 159.7617034912109 4.847208856517682e-06 162 2.238296508789062 162 5.000400543212891 L 162 15.0002965927124 C 162 17.76150512695312 159.7617034912109 19.99979591369629 156.9996032714844 19.99979591369629 L 107.0001068115234 19.99979591369629 C 104.238899230957 19.99979591369629 101.9997100830078 17.76150512695312 101.9997100830078 15.0002965927124 L 101.9997100830078 10.99979686737061 L 81.99989318847656 10.99979686737061 L 81.99989318847656 50.49990081787109 Z M 81 50.49990081787109 L 60.00028991699219 50.49990081787109 L 60.00028991699219 49.50000381469727 L 81 49.50000381469727 L 81 50.49990081787109 Z M 54.99989700317383 19.99979591369629 L 5.000395774841309 19.99979591369629 C 2.23829174041748 19.99979591369629 1.4210854715202e-14 17.76150512695312 1.4210854715202e-14 15.0002965927124 L 1.4210854715202e-14 5.000400543212891 C 1.4210854715202e-14 2.238296508789062 2.23829174041748 4.847208856517682e-06 5.000395774841309 4.847208856517682e-06 L 54.99989700317383 4.847208856517682e-06 C 57.76110458374023 4.847208856517682e-06 60.00028991699219 2.238296508789062 60.00028991699219 5.000400543212891 L 60.00028991699219 15.0002965927124 C 60.00028991699219 17.76150512695312 57.76110458374023 19.99979591369629 54.99989700317383 19.99979591369629 Z" stroke="none" fill="#03d5fb"/>
      </g>
    </g>
    <g transform="matrix(1, 0, 0, 1, 0, 0)" filter="url(#Union_2-2)">
      <g id="Union_2-4" data-name="Union 2" transform="translate(10.5 10.5)" fill="#fff">
        <path d="M5,60a5,5,0,0,1-5-5V45a5,5,0,0,1,5-5H55a5,5,0,0,1,5,5V55a5,5,0,0,1-5,5Zm76-9.5V11H60V10h42V5a5,5,0,0,1,5-5h50a5,5,0,0,1,5,5V15a5,5,0,0,1-5,5H107a5,5,0,0,1-5-5V11H82V50.5Zm-21,0v-1H81v1ZM5,20a5,5,0,0,1-5-5V5A5,5,0,0,1,5,0H55a5,5,0,0,1,5,5V15a5,5,0,0,1-5,5Z" stroke="none"/>
        <path d="M 54.99989700317383 59.00029754638672 C 57.20573043823242 59.00029754638672 59.00028991699219 57.20573425292969 59.00028991699219 54.99990081787109 L 59.00028991699219 45.00000381469727 C 59.00028991699219 42.79417037963867 57.20573043823242 40.99961090087891 54.99989700317383 40.99961090087891 L 5.000395774841309 40.99961090087891 C 2.794562578201294 40.99961090087891 1 42.79417037963867 1 45.00000381469727 L 1 54.99990081787109 C 1 57.20573425292969 2.794562578201294 59.00029754638672 5.000395774841309 59.00029754638672 L 54.99989700317383 59.00029754638672 M 156.9996032714844 18.99979591369629 C 159.2054443359375 18.99979591369629 161 17.20562934875488 161 15.0002965927124 L 161 5.000400543212891 C 161 2.794567346572876 159.2054443359375 1.000004887580872 156.9996032714844 1.000004887580872 L 107.0001068115234 1.000004887580872 C 104.7942733764648 1.000004887580872 102.9997100830078 2.794567346572876 102.9997100830078 5.000400543212891 L 102.9997100830078 15.0002965927124 C 102.9997100830078 17.20562934875488 104.7942733764648 18.99979591369629 107.0001068115234 18.99979591369629 L 156.9996032714844 18.99979591369629 M 54.99989700317383 18.99979591369629 C 57.20573043823242 18.99979591369629 59.00028991699219 17.20562934875488 59.00028991699219 15.0002965927124 L 59.00028991699219 5.000400543212891 C 59.00028991699219 2.794567346572876 57.20573043823242 1.000004887580872 54.99989700317383 1.000004887580872 L 5.000395774841309 1.000004887580872 C 2.794562578201294 1.000004887580872 1 2.794567346572876 1 5.000400543212891 L 1 15.0002965927124 C 1 17.20562934875488 2.794562578201294 18.99979591369629 5.000395774841309 18.99979591369629 L 54.99989700317383 18.99979591369629 M 54.99989700317383 60.00029754638672 L 5.000395774841309 60.00029754638672 C 2.23829174041748 60.00029754638672 1.4210854715202e-14 57.7611083984375 1.4210854715202e-14 54.99990081787109 L 1.4210854715202e-14 45.00000381469727 C 1.4210854715202e-14 42.23879623413086 2.23829174041748 39.99961090087891 5.000395774841309 39.99961090087891 L 54.99989700317383 39.99961090087891 C 57.76110458374023 39.99961090087891 60.00028991699219 42.23879623413086 60.00028991699219 45.00000381469727 L 60.00028991699219 54.99990081787109 C 60.00028991699219 57.7611083984375 57.76110458374023 60.00029754638672 54.99989700317383 60.00029754638672 Z M 81.99989318847656 50.49990081787109 L 81 50.49990081787109 L 81 10.99979686737061 L 60.00028991699219 10.99979686737061 L 60.00028991699219 9.999900817871094 L 101.9997100830078 9.999900817871094 L 101.9997100830078 5.000400543212891 C 101.9997100830078 2.238296508789062 104.238899230957 4.847208856517682e-06 107.0001068115234 4.847208856517682e-06 L 156.9996032714844 4.847208856517682e-06 C 159.7617034912109 4.847208856517682e-06 162 2.238296508789062 162 5.000400543212891 L 162 15.0002965927124 C 162 17.76150512695312 159.7617034912109 19.99979591369629 156.9996032714844 19.99979591369629 L 107.0001068115234 19.99979591369629 C 104.238899230957 19.99979591369629 101.9997100830078 17.76150512695312 101.9997100830078 15.0002965927124 L 101.9997100830078 10.99979686737061 L 81.99989318847656 10.99979686737061 L 81.99989318847656 50.49990081787109 Z M 81 50.49990081787109 L 60.00028991699219 50.49990081787109 L 60.00028991699219 49.50000381469727 L 81 49.50000381469727 L 81 50.49990081787109 Z M 54.99989700317383 19.99979591369629 L 5.000395774841309 19.99979591369629 C 2.23829174041748 19.99979591369629 1.4210854715202e-14 17.76150512695312 1.4210854715202e-14 15.0002965927124 L 1.4210854715202e-14 5.000400543212891 C 1.4210854715202e-14 2.238296508789062 2.23829174041748 4.847208856517682e-06 5.000395774841309 4.847208856517682e-06 L 54.99989700317383 4.847208856517682e-06 C 57.76110458374023 4.847208856517682e-06 60.00028991699219 2.238296508789062 60.00028991699219 5.000400543212891 L 60.00028991699219 15.0002965927124 C 60.00028991699219 17.76150512695312 57.76110458374023 19.99979591369629 54.99989700317383 19.99979591369629 Z" stroke="none"/>
      </g>
    </g>
    <g id="Union_2-5" data-name="Union 2" transform="translate(10.5 10.5)" fill="none">
      <path d="M5,60a5,5,0,0,1-5-5V45a5,5,0,0,1,5-5H55a5,5,0,0,1,5,5V55a5,5,0,0,1-5,5Zm76-9.5V11H60V10h42V5a5,5,0,0,1,5-5h50a5,5,0,0,1,5,5V15a5,5,0,0,1-5,5H107a5,5,0,0,1-5-5V11H82V50.5Zm-21,0v-1H81v1ZM5,20a5,5,0,0,1-5-5V5A5,5,0,0,1,5,0H55a5,5,0,0,1,5,5V15a5,5,0,0,1-5,5Z" stroke="none"/>
      <path d="M 54.99989700317383 59.00029754638672 C 57.20573043823242 59.00029754638672 59.00028991699219 57.20573425292969 59.00028991699219 54.99990081787109 L 59.00028991699219 45.00000381469727 C 59.00028991699219 42.79417037963867 57.20573043823242 40.99961090087891 54.99989700317383 40.99961090087891 L 5.000395774841309 40.99961090087891 C 2.794562578201294 40.99961090087891 1 42.79417037963867 1 45.00000381469727 L 1 54.99990081787109 C 1 57.20573425292969 2.794562578201294 59.00029754638672 5.000395774841309 59.00029754638672 L 54.99989700317383 59.00029754638672 M 156.9996032714844 18.99979591369629 C 159.2054443359375 18.99979591369629 161 17.20562934875488 161 15.0002965927124 L 161 5.000400543212891 C 161 2.794567346572876 159.2054443359375 1.000004887580872 156.9996032714844 1.000004887580872 L 107.0001068115234 1.000004887580872 C 104.7942733764648 1.000004887580872 102.9997100830078 2.794567346572876 102.9997100830078 5.000400543212891 L 102.9997100830078 15.0002965927124 C 102.9997100830078 17.20562934875488 104.7942733764648 18.99979591369629 107.0001068115234 18.99979591369629 L 156.9996032714844 18.99979591369629 M 54.99989700317383 18.99979591369629 C 57.20573043823242 18.99979591369629 59.00028991699219 17.20562934875488 59.00028991699219 15.0002965927124 L 59.00028991699219 5.000400543212891 C 59.00028991699219 2.794567346572876 57.20573043823242 1.000004887580872 54.99989700317383 1.000004887580872 L 5.000395774841309 1.000004887580872 C 2.794562578201294 1.000004887580872 1 2.794567346572876 1 5.000400543212891 L 1 15.0002965927124 C 1 17.20562934875488 2.794562578201294 18.99979591369629 5.000395774841309 18.99979591369629 L 54.99989700317383 18.99979591369629 M 54.99989700317383 60.00029754638672 L 5.000395774841309 60.00029754638672 C 2.23829174041748 60.00029754638672 1.4210854715202e-14 57.7611083984375 1.4210854715202e-14 54.99990081787109 L 1.4210854715202e-14 45.00000381469727 C 1.4210854715202e-14 42.23879623413086 2.23829174041748 39.99961090087891 5.000395774841309 39.99961090087891 L 54.99989700317383 39.99961090087891 C 57.76110458374023 39.99961090087891 60.00028991699219 42.23879623413086 60.00028991699219 45.00000381469727 L 60.00028991699219 54.99990081787109 C 60.00028991699219 57.7611083984375 57.76110458374023 60.00029754638672 54.99989700317383 60.00029754638672 Z M 81.99989318847656 50.49990081787109 L 81 50.49990081787109 L 81 10.99979686737061 L 60.00028991699219 10.99979686737061 L 60.00028991699219 9.999900817871094 L 101.9997100830078 9.999900817871094 L 101.9997100830078 5.000400543212891 C 101.9997100830078 2.238296508789062 104.238899230957 4.847208856517682e-06 107.0001068115234 4.847208856517682e-06 L 156.9996032714844 4.847208856517682e-06 C 159.7617034912109 4.847208856517682e-06 162 2.238296508789062 162 5.000400543212891 L 162 15.0002965927124 C 162 17.76150512695312 159.7617034912109 19.99979591369629 156.9996032714844 19.99979591369629 L 107.0001068115234 19.99979591369629 C 104.238899230957 19.99979591369629 101.9997100830078 17.76150512695312 101.9997100830078 15.0002965927124 L 101.9997100830078 10.99979686737061 L 81.99989318847656 10.99979686737061 L 81.99989318847656 50.49990081787109 Z M 81 50.49990081787109 L 60.00028991699219 50.49990081787109 L 60.00028991699219 49.50000381469727 L 81 49.50000381469727 L 81 50.49990081787109 Z M 54.99989700317383 19.99979591369629 L 5.000395774841309 19.99979591369629 C 2.23829174041748 19.99979591369629 1.4210854715202e-14 17.76150512695312 1.4210854715202e-14 15.0002965927124 L 1.4210854715202e-14 5.000400543212891 C 1.4210854715202e-14 2.238296508789062 2.23829174041748 4.847208856517682e-06 5.000395774841309 4.847208856517682e-06 L 54.99989700317383 4.847208856517682e-06 C 57.76110458374023 4.847208856517682e-06 60.00028991699219 2.238296508789062 60.00028991699219 5.000400543212891 L 60.00028991699219 15.0002965927124 C 60.00028991699219 17.76150512695312 57.76110458374023 19.99979591369629 54.99989700317383 19.99979591369629 Z" stroke="none" fill="#03d5fb"/>
    </g>
  </g>
</svg>
