<svg xmlns="http://www.w3.org/2000/svg" xmlns:xlink="http://www.w3.org/1999/xlink" width="183" height="81" viewBox="0 0 183 81">
  <defs>
    <filter id="Union_3" x="0" y="0" width="183" height="41" filterUnits="userSpaceOnUse">
      <feOffset input="SourceAlpha"/>
      <feGaussianBlur stdDeviation="3.5" result="blur"/>
      <feFlood flood-color="#03d5fb"/>
      <feComposite operator="in" in2="blur"/>
    </filter>
    <filter id="Union_3-2" x="0" y="0" width="183" height="41" filterUnits="userSpaceOnUse">
      <feOffset input="SourceAlpha"/>
      <feGaussianBlur stdDeviation="2.5" result="blur-2"/>
      <feFlood flood-color="#03d5fb" result="color"/>
      <feComposite operator="out" in="SourceGraphic" in2="blur-2"/>
      <feComposite operator="in" in="color"/>
      <feComposite operator="in" in2="SourceGraphic"/>
    </filter>
    <filter id="Union_4" x="0" y="40" width="183" height="41" filterUnits="userSpaceOnUse">
      <feOffset input="SourceAlpha"/>
      <feGaussianBlur stdDeviation="3.5" result="blur-3"/>
      <feFlood flood-color="#03d5fb"/>
      <feComposite operator="in" in2="blur-3"/>
    </filter>
    <filter id="Union_4-2" x="0" y="40" width="183" height="41" filterUnits="userSpaceOnUse">
      <feOffset input="SourceAlpha"/>
      <feGaussianBlur stdDeviation="2.5" result="blur-4"/>
      <feFlood flood-color="#03d5fb" result="color-2"/>
      <feComposite operator="out" in="SourceGraphic" in2="blur-4"/>
      <feComposite operator="in" in="color-2"/>
      <feComposite operator="in" in2="SourceGraphic"/>
    </filter>
    <filter id="Line_1" x="59.159" y="10.134" width="64.681" height="61.732" filterUnits="userSpaceOnUse">
      <feOffset input="SourceAlpha"/>
      <feGaussianBlur stdDeviation="3.5" result="blur-5"/>
      <feFlood flood-color="#03d5fb"/>
      <feComposite operator="in" in2="blur-5"/>
      <feComposite in="SourceGraphic"/>
    </filter>
    <filter id="Line_2" x="59.159" y="10.134" width="64.681" height="61.732" filterUnits="userSpaceOnUse">
      <feOffset input="SourceAlpha"/>
      <feGaussianBlur stdDeviation="3.5" result="blur-6"/>
      <feFlood flood-color="#03d5fb"/>
      <feComposite operator="in" in2="blur-6"/>
      <feComposite in="SourceGraphic"/>
    </filter>
    <filter id="Line_3" x="30" y="20" width="22" height="41.5" filterUnits="userSpaceOnUse">
      <feOffset input="SourceAlpha"/>
      <feGaussianBlur stdDeviation="3.5" result="blur-7"/>
      <feFlood flood-color="#03d5fb"/>
      <feComposite operator="in" in2="blur-7"/>
      <feComposite in="SourceGraphic"/>
    </filter>
    <filter id="Line_4" x="132" y="20" width="22" height="41.5" filterUnits="userSpaceOnUse">
      <feOffset input="SourceAlpha"/>
      <feGaussianBlur stdDeviation="3.5" result="blur-8"/>
      <feFlood flood-color="#03d5fb"/>
      <feComposite operator="in" in2="blur-8"/>
      <feComposite in="SourceGraphic"/>
    </filter>
  </defs>
  <g id="Group_211" data-name="Group 211" transform="translate(-1218.5 -401.5)">
    <g data-type="innerShadowGroup">
      <g transform="matrix(1, 0, 0, 1, 1218.5, 401.5)" filter="url(#Union_3)">
        <g id="Union_3-3" data-name="Union 3" transform="translate(10.5 10.5)" fill="none">
          <path d="M107,20a5,5,0,0,1-5-5V11H60V10h42V5a5,5,0,0,1,5-5h50a5,5,0,0,1,5,5V15a5,5,0,0,1-5,5ZM5,20a5,5,0,0,1-5-5V5A5,5,0,0,1,5,0H55a5,5,0,0,1,5,5V15a5,5,0,0,1-5,5Z" stroke="none"/>
          <path d="M 156.9996032714844 18.99979591369629 C 159.2054443359375 18.99979591369629 161 17.20562934875488 161 15.00029563903809 L 161 5.000400066375732 C 161 2.794566631317139 159.2054443359375 1.000004053115845 156.9996032714844 1.000004053115845 L 107.0001068115234 1.000004053115845 C 104.7942733764648 1.000004053115845 102.9997100830078 2.794566631317139 102.9997100830078 5.000400066375732 L 102.9997100830078 10.99989986419678 L 102.9997100830078 10.99979591369629 L 102.9997100830078 15.00029563903809 C 102.9997100830078 17.20562934875488 104.7942733764648 18.99979591369629 107.0001068115234 18.99979591369629 L 156.9996032714844 18.99979591369629 M 54.99989700317383 18.99979591369629 C 57.20573043823242 18.99979591369629 59.00028991699219 17.20562934875488 59.00028991699219 15.00029563903809 L 59.00028991699219 5.000400066375732 C 59.00028991699219 2.794566631317139 57.20573043823242 1.000004053115845 54.99989700317383 1.000004053115845 L 5.000395774841309 1.000004053115845 C 2.794562578201294 1.000004053115845 1 2.794566631317139 1 5.000400066375732 L 1 15.00029563903809 C 1 17.20562934875488 2.794562578201294 18.99979591369629 5.000395774841309 18.99979591369629 L 54.99989700317383 18.99979591369629 M 156.9996032714844 19.99979591369629 L 107.0001068115234 19.99979591369629 C 104.238899230957 19.99979591369629 101.9997100830078 17.76150321960449 101.9997100830078 15.00029563903809 L 101.9997100830078 10.99979591369629 L 60.00028991699219 10.99979591369629 L 60.00028991699219 9.999899864196777 L 101.9997100830078 9.999899864196777 L 101.9997100830078 5.000400066375732 C 101.9997100830078 2.238295793533325 104.238899230957 4.030863237858284e-06 107.0001068115234 4.030863237858284e-06 L 156.9996032714844 4.030863237858284e-06 C 159.7617034912109 4.030863237858284e-06 162 2.238295793533325 162 5.000400066375732 L 162 15.00029563903809 C 162 17.76150321960449 159.7617034912109 19.99979591369629 156.9996032714844 19.99979591369629 Z M 54.99989700317383 19.99979591369629 L 5.000395774841309 19.99979591369629 C 2.23829174041748 19.99979591369629 1.4210854715202e-14 17.76150321960449 1.4210854715202e-14 15.00029563903809 L 1.4210854715202e-14 5.000400066375732 C 1.4210854715202e-14 2.238295793533325 2.23829174041748 4.030863237858284e-06 5.000395774841309 4.030863237858284e-06 L 54.99989700317383 4.030863237858284e-06 C 57.76110458374023 4.030863237858284e-06 60.00028991699219 2.238295793533325 60.00028991699219 5.000400066375732 L 60.00028991699219 15.00029563903809 C 60.00028991699219 17.76150321960449 57.76110458374023 19.99979591369629 54.99989700317383 19.99979591369629 Z" stroke="none" fill="#03d5fb"/>
        </g>
      </g>
      <g transform="matrix(1, 0, 0, 1, 1218.5, 401.5)" filter="url(#Union_3-2)">
        <g id="Union_3-4" data-name="Union 3" transform="translate(10.5 10.5)" fill="#fff">
          <path d="M107,20a5,5,0,0,1-5-5V11H60V10h42V5a5,5,0,0,1,5-5h50a5,5,0,0,1,5,5V15a5,5,0,0,1-5,5ZM5,20a5,5,0,0,1-5-5V5A5,5,0,0,1,5,0H55a5,5,0,0,1,5,5V15a5,5,0,0,1-5,5Z" stroke="none"/>
          <path d="M 156.9996032714844 18.99979591369629 C 159.2054443359375 18.99979591369629 161 17.20562934875488 161 15.00029563903809 L 161 5.000400066375732 C 161 2.794566631317139 159.2054443359375 1.000004053115845 156.9996032714844 1.000004053115845 L 107.0001068115234 1.000004053115845 C 104.7942733764648 1.000004053115845 102.9997100830078 2.794566631317139 102.9997100830078 5.000400066375732 L 102.9997100830078 10.99989986419678 L 102.9997100830078 10.99979591369629 L 102.9997100830078 15.00029563903809 C 102.9997100830078 17.20562934875488 104.7942733764648 18.99979591369629 107.0001068115234 18.99979591369629 L 156.9996032714844 18.99979591369629 M 54.99989700317383 18.99979591369629 C 57.20573043823242 18.99979591369629 59.00028991699219 17.20562934875488 59.00028991699219 15.00029563903809 L 59.00028991699219 5.000400066375732 C 59.00028991699219 2.794566631317139 57.20573043823242 1.000004053115845 54.99989700317383 1.000004053115845 L 5.000395774841309 1.000004053115845 C 2.794562578201294 1.000004053115845 1 2.794566631317139 1 5.000400066375732 L 1 15.00029563903809 C 1 17.20562934875488 2.794562578201294 18.99979591369629 5.000395774841309 18.99979591369629 L 54.99989700317383 18.99979591369629 M 156.9996032714844 19.99979591369629 L 107.0001068115234 19.99979591369629 C 104.238899230957 19.99979591369629 101.9997100830078 17.76150321960449 101.9997100830078 15.00029563903809 L 101.9997100830078 10.99979591369629 L 60.00028991699219 10.99979591369629 L 60.00028991699219 9.999899864196777 L 101.9997100830078 9.999899864196777 L 101.9997100830078 5.000400066375732 C 101.9997100830078 2.238295793533325 104.238899230957 4.030863237858284e-06 107.0001068115234 4.030863237858284e-06 L 156.9996032714844 4.030863237858284e-06 C 159.7617034912109 4.030863237858284e-06 162 2.238295793533325 162 5.000400066375732 L 162 15.00029563903809 C 162 17.76150321960449 159.7617034912109 19.99979591369629 156.9996032714844 19.99979591369629 Z M 54.99989700317383 19.99979591369629 L 5.000395774841309 19.99979591369629 C 2.23829174041748 19.99979591369629 1.4210854715202e-14 17.76150321960449 1.4210854715202e-14 15.00029563903809 L 1.4210854715202e-14 5.000400066375732 C 1.4210854715202e-14 2.238295793533325 2.23829174041748 4.030863237858284e-06 5.000395774841309 4.030863237858284e-06 L 54.99989700317383 4.030863237858284e-06 C 57.76110458374023 4.030863237858284e-06 60.00028991699219 2.238295793533325 60.00028991699219 5.000400066375732 L 60.00028991699219 15.00029563903809 C 60.00028991699219 17.76150321960449 57.76110458374023 19.99979591369629 54.99989700317383 19.99979591369629 Z" stroke="none"/>
        </g>
      </g>
      <g id="Union_3-5" data-name="Union 3" transform="translate(1229 412)" fill="none">
        <path d="M107,20a5,5,0,0,1-5-5V11H60V10h42V5a5,5,0,0,1,5-5h50a5,5,0,0,1,5,5V15a5,5,0,0,1-5,5ZM5,20a5,5,0,0,1-5-5V5A5,5,0,0,1,5,0H55a5,5,0,0,1,5,5V15a5,5,0,0,1-5,5Z" stroke="none"/>
        <path d="M 156.9996032714844 18.99979591369629 C 159.2054443359375 18.99979591369629 161 17.20562934875488 161 15.00029563903809 L 161 5.000400066375732 C 161 2.794566631317139 159.2054443359375 1.000004053115845 156.9996032714844 1.000004053115845 L 107.0001068115234 1.000004053115845 C 104.7942733764648 1.000004053115845 102.9997100830078 2.794566631317139 102.9997100830078 5.000400066375732 L 102.9997100830078 10.99989986419678 L 102.9997100830078 10.99979591369629 L 102.9997100830078 15.00029563903809 C 102.9997100830078 17.20562934875488 104.7942733764648 18.99979591369629 107.0001068115234 18.99979591369629 L 156.9996032714844 18.99979591369629 M 54.99989700317383 18.99979591369629 C 57.20573043823242 18.99979591369629 59.00028991699219 17.20562934875488 59.00028991699219 15.00029563903809 L 59.00028991699219 5.000400066375732 C 59.00028991699219 2.794566631317139 57.20573043823242 1.000004053115845 54.99989700317383 1.000004053115845 L 5.000395774841309 1.000004053115845 C 2.794562578201294 1.000004053115845 1 2.794566631317139 1 5.000400066375732 L 1 15.00029563903809 C 1 17.20562934875488 2.794562578201294 18.99979591369629 5.000395774841309 18.99979591369629 L 54.99989700317383 18.99979591369629 M 156.9996032714844 19.99979591369629 L 107.0001068115234 19.99979591369629 C 104.238899230957 19.99979591369629 101.9997100830078 17.76150321960449 101.9997100830078 15.00029563903809 L 101.9997100830078 10.99979591369629 L 60.00028991699219 10.99979591369629 L 60.00028991699219 9.999899864196777 L 101.9997100830078 9.999899864196777 L 101.9997100830078 5.000400066375732 C 101.9997100830078 2.238295793533325 104.238899230957 4.030863237858284e-06 107.0001068115234 4.030863237858284e-06 L 156.9996032714844 4.030863237858284e-06 C 159.7617034912109 4.030863237858284e-06 162 2.238295793533325 162 5.000400066375732 L 162 15.00029563903809 C 162 17.76150321960449 159.7617034912109 19.99979591369629 156.9996032714844 19.99979591369629 Z M 54.99989700317383 19.99979591369629 L 5.000395774841309 19.99979591369629 C 2.23829174041748 19.99979591369629 1.4210854715202e-14 17.76150321960449 1.4210854715202e-14 15.00029563903809 L 1.4210854715202e-14 5.000400066375732 C 1.4210854715202e-14 2.238295793533325 2.23829174041748 4.030863237858284e-06 5.000395774841309 4.030863237858284e-06 L 54.99989700317383 4.030863237858284e-06 C 57.76110458374023 4.030863237858284e-06 60.00028991699219 2.238295793533325 60.00028991699219 5.000400066375732 L 60.00028991699219 15.00029563903809 C 60.00028991699219 17.76150321960449 57.76110458374023 19.99979591369629 54.99989700317383 19.99979591369629 Z" stroke="none" fill="#03d5fb"/>
      </g>
    </g>
    <g data-type="innerShadowGroup">
      <g transform="matrix(1, 0, 0, 1, 1218.5, 401.5)" filter="url(#Union_4)">
        <g id="Union_4-3" data-name="Union 4" transform="translate(10.5 50.5)" fill="none">
          <path d="M107,20a5,5,0,0,1-5-5V11H60V10h42V5a5,5,0,0,1,5-5h50a5,5,0,0,1,5,5V15a5,5,0,0,1-5,5ZM5,20a5,5,0,0,1-5-5V5A5,5,0,0,1,5,0H55a5,5,0,0,1,5,5V15a5,5,0,0,1-5,5Z" stroke="none"/>
          <path d="M 156.9996032714844 18.99979591369629 C 159.2054443359375 18.99979591369629 161 17.20562934875488 161 15.00029563903809 L 161 5.000400066375732 C 161 2.794566631317139 159.2054443359375 1.000004053115845 156.9996032714844 1.000004053115845 L 107.0001068115234 1.000004053115845 C 104.7942733764648 1.000004053115845 102.9997100830078 2.794566631317139 102.9997100830078 5.000400066375732 L 102.9997100830078 10.99989986419678 L 102.9997100830078 10.99979591369629 L 102.9997100830078 15.00029563903809 C 102.9997100830078 17.20562934875488 104.7942733764648 18.99979591369629 107.0001068115234 18.99979591369629 L 156.9996032714844 18.99979591369629 M 54.99989700317383 18.99979591369629 C 57.20573043823242 18.99979591369629 59.00028991699219 17.20562934875488 59.00028991699219 15.00029563903809 L 59.00028991699219 5.000400066375732 C 59.00028991699219 2.794566631317139 57.20573043823242 1.000004053115845 54.99989700317383 1.000004053115845 L 5.000395774841309 1.000004053115845 C 2.794562578201294 1.000004053115845 1 2.794566631317139 1 5.000400066375732 L 1 15.00029563903809 C 1 17.20562934875488 2.794562578201294 18.99979591369629 5.000395774841309 18.99979591369629 L 54.99989700317383 18.99979591369629 M 156.9996032714844 19.99979591369629 L 107.0001068115234 19.99979591369629 C 104.238899230957 19.99979591369629 101.9997100830078 17.76150321960449 101.9997100830078 15.00029563903809 L 101.9997100830078 10.99979591369629 L 60.00028991699219 10.99979591369629 L 60.00028991699219 9.999899864196777 L 101.9997100830078 9.999899864196777 L 101.9997100830078 5.000400066375732 C 101.9997100830078 2.238295793533325 104.238899230957 4.030863237858284e-06 107.0001068115234 4.030863237858284e-06 L 156.9996032714844 4.030863237858284e-06 C 159.7617034912109 4.030863237858284e-06 162 2.238295793533325 162 5.000400066375732 L 162 15.00029563903809 C 162 17.76150321960449 159.7617034912109 19.99979591369629 156.9996032714844 19.99979591369629 Z M 54.99989700317383 19.99979591369629 L 5.000395774841309 19.99979591369629 C 2.23829174041748 19.99979591369629 1.4210854715202e-14 17.76150321960449 1.4210854715202e-14 15.00029563903809 L 1.4210854715202e-14 5.000400066375732 C 1.4210854715202e-14 2.238295793533325 2.23829174041748 4.030863237858284e-06 5.000395774841309 4.030863237858284e-06 L 54.99989700317383 4.030863237858284e-06 C 57.76110458374023 4.030863237858284e-06 60.00028991699219 2.238295793533325 60.00028991699219 5.000400066375732 L 60.00028991699219 15.00029563903809 C 60.00028991699219 17.76150321960449 57.76110458374023 19.99979591369629 54.99989700317383 19.99979591369629 Z" stroke="none" fill="#03d5fb"/>
        </g>
      </g>
      <g transform="matrix(1, 0, 0, 1, 1218.5, 401.5)" filter="url(#Union_4-2)">
        <g id="Union_4-4" data-name="Union 4" transform="translate(10.5 50.5)" fill="#fff">
          <path d="M107,20a5,5,0,0,1-5-5V11H60V10h42V5a5,5,0,0,1,5-5h50a5,5,0,0,1,5,5V15a5,5,0,0,1-5,5ZM5,20a5,5,0,0,1-5-5V5A5,5,0,0,1,5,0H55a5,5,0,0,1,5,5V15a5,5,0,0,1-5,5Z" stroke="none"/>
          <path d="M 156.9996032714844 18.99979591369629 C 159.2054443359375 18.99979591369629 161 17.20562934875488 161 15.00029563903809 L 161 5.000400066375732 C 161 2.794566631317139 159.2054443359375 1.000004053115845 156.9996032714844 1.000004053115845 L 107.0001068115234 1.000004053115845 C 104.7942733764648 1.000004053115845 102.9997100830078 2.794566631317139 102.9997100830078 5.000400066375732 L 102.9997100830078 10.99989986419678 L 102.9997100830078 10.99979591369629 L 102.9997100830078 15.00029563903809 C 102.9997100830078 17.20562934875488 104.7942733764648 18.99979591369629 107.0001068115234 18.99979591369629 L 156.9996032714844 18.99979591369629 M 54.99989700317383 18.99979591369629 C 57.20573043823242 18.99979591369629 59.00028991699219 17.20562934875488 59.00028991699219 15.00029563903809 L 59.00028991699219 5.000400066375732 C 59.00028991699219 2.794566631317139 57.20573043823242 1.000004053115845 54.99989700317383 1.000004053115845 L 5.000395774841309 1.000004053115845 C 2.794562578201294 1.000004053115845 1 2.794566631317139 1 5.000400066375732 L 1 15.00029563903809 C 1 17.20562934875488 2.794562578201294 18.99979591369629 5.000395774841309 18.99979591369629 L 54.99989700317383 18.99979591369629 M 156.9996032714844 19.99979591369629 L 107.0001068115234 19.99979591369629 C 104.238899230957 19.99979591369629 101.9997100830078 17.76150321960449 101.9997100830078 15.00029563903809 L 101.9997100830078 10.99979591369629 L 60.00028991699219 10.99979591369629 L 60.00028991699219 9.999899864196777 L 101.9997100830078 9.999899864196777 L 101.9997100830078 5.000400066375732 C 101.9997100830078 2.238295793533325 104.238899230957 4.030863237858284e-06 107.0001068115234 4.030863237858284e-06 L 156.9996032714844 4.030863237858284e-06 C 159.7617034912109 4.030863237858284e-06 162 2.238295793533325 162 5.000400066375732 L 162 15.00029563903809 C 162 17.76150321960449 159.7617034912109 19.99979591369629 156.9996032714844 19.99979591369629 Z M 54.99989700317383 19.99979591369629 L 5.000395774841309 19.99979591369629 C 2.23829174041748 19.99979591369629 1.4210854715202e-14 17.76150321960449 1.4210854715202e-14 15.00029563903809 L 1.4210854715202e-14 5.000400066375732 C 1.4210854715202e-14 2.238295793533325 2.23829174041748 4.030863237858284e-06 5.000395774841309 4.030863237858284e-06 L 54.99989700317383 4.030863237858284e-06 C 57.76110458374023 4.030863237858284e-06 60.00028991699219 2.238295793533325 60.00028991699219 5.000400066375732 L 60.00028991699219 15.00029563903809 C 60.00028991699219 17.76150321960449 57.76110458374023 19.99979591369629 54.99989700317383 19.99979591369629 Z" stroke="none"/>
        </g>
      </g>
      <g id="Union_4-5" data-name="Union 4" transform="translate(1229 452)" fill="none">
        <path d="M107,20a5,5,0,0,1-5-5V11H60V10h42V5a5,5,0,0,1,5-5h50a5,5,0,0,1,5,5V15a5,5,0,0,1-5,5ZM5,20a5,5,0,0,1-5-5V5A5,5,0,0,1,5,0H55a5,5,0,0,1,5,5V15a5,5,0,0,1-5,5Z" stroke="none"/>
        <path d="M 156.9996032714844 18.99979591369629 C 159.2054443359375 18.99979591369629 161 17.20562934875488 161 15.00029563903809 L 161 5.000400066375732 C 161 2.794566631317139 159.2054443359375 1.000004053115845 156.9996032714844 1.000004053115845 L 107.0001068115234 1.000004053115845 C 104.7942733764648 1.000004053115845 102.9997100830078 2.794566631317139 102.9997100830078 5.000400066375732 L 102.9997100830078 10.99989986419678 L 102.9997100830078 10.99979591369629 L 102.9997100830078 15.00029563903809 C 102.9997100830078 17.20562934875488 104.7942733764648 18.99979591369629 107.0001068115234 18.99979591369629 L 156.9996032714844 18.99979591369629 M 54.99989700317383 18.99979591369629 C 57.20573043823242 18.99979591369629 59.00028991699219 17.20562934875488 59.00028991699219 15.00029563903809 L 59.00028991699219 5.000400066375732 C 59.00028991699219 2.794566631317139 57.20573043823242 1.000004053115845 54.99989700317383 1.000004053115845 L 5.000395774841309 1.000004053115845 C 2.794562578201294 1.000004053115845 1 2.794566631317139 1 5.000400066375732 L 1 15.00029563903809 C 1 17.20562934875488 2.794562578201294 18.99979591369629 5.000395774841309 18.99979591369629 L 54.99989700317383 18.99979591369629 M 156.9996032714844 19.99979591369629 L 107.0001068115234 19.99979591369629 C 104.238899230957 19.99979591369629 101.9997100830078 17.76150321960449 101.9997100830078 15.00029563903809 L 101.9997100830078 10.99979591369629 L 60.00028991699219 10.99979591369629 L 60.00028991699219 9.999899864196777 L 101.9997100830078 9.999899864196777 L 101.9997100830078 5.000400066375732 C 101.9997100830078 2.238295793533325 104.238899230957 4.030863237858284e-06 107.0001068115234 4.030863237858284e-06 L 156.9996032714844 4.030863237858284e-06 C 159.7617034912109 4.030863237858284e-06 162 2.238295793533325 162 5.000400066375732 L 162 15.00029563903809 C 162 17.76150321960449 159.7617034912109 19.99979591369629 156.9996032714844 19.99979591369629 Z M 54.99989700317383 19.99979591369629 L 5.000395774841309 19.99979591369629 C 2.23829174041748 19.99979591369629 1.4210854715202e-14 17.76150321960449 1.4210854715202e-14 15.00029563903809 L 1.4210854715202e-14 5.000400066375732 C 1.4210854715202e-14 2.238295793533325 2.23829174041748 4.030863237858284e-06 5.000395774841309 4.030863237858284e-06 L 54.99989700317383 4.030863237858284e-06 C 57.76110458374023 4.030863237858284e-06 60.00028991699219 2.238295793533325 60.00028991699219 5.000400066375732 L 60.00028991699219 15.00029563903809 C 60.00028991699219 17.76150321960449 57.76110458374023 19.99979591369629 54.99989700317383 19.99979591369629 Z" stroke="none" fill="#03d5fb"/>
      </g>
    </g>
    <g transform="matrix(1, 0, 0, 1, 1218.5, 401.5)" filter="url(#Line_1)">
      <line id="Line_1-2" data-name="Line 1" x2="43" y2="40" transform="translate(70 21)" fill="none" stroke="#03d5fb" stroke-width="1"/>
    </g>
    <g transform="matrix(1, 0, 0, 1, 1218.5, 401.5)" filter="url(#Line_2)">
      <line id="Line_2-2" data-name="Line 2" x1="43" y2="40" transform="translate(70 21)" fill="none" stroke="#03d5fb" stroke-width="1"/>
    </g>
    <g transform="matrix(1, 0, 0, 1, 1218.5, 401.5)" filter="url(#Line_3)">
      <line id="Line_3-2" data-name="Line 3" y2="20.5" transform="translate(41 30.5)" fill="none" stroke="#03d5fb" stroke-width="1"/>
    </g>
    <g transform="matrix(1, 0, 0, 1, 1218.5, 401.5)" filter="url(#Line_4)">
      <line id="Line_4-2" data-name="Line 4" y2="20.5" transform="translate(143 30.5)" fill="none" stroke="#03d5fb" stroke-width="1"/>
    </g>
  </g>
</svg>
