<svg xmlns="http://www.w3.org/2000/svg" xmlns:xlink="http://www.w3.org/1999/xlink" width="253.001" height="61" viewBox="0 0 253.001 61">
  <defs>
    <filter id="Union_3" x="0" y="0" width="125" height="35" filterUnits="userSpaceOnUse">
      <feOffset input="SourceAlpha"/>
      <feGaussianBlur stdDeviation="3.5" result="blur"/>
      <feFlood flood-color="#03d5fb"/>
      <feComposite operator="in" in2="blur"/>
    </filter>
    <filter id="Union_3-2" x="0" y="0" width="125" height="35" filterUnits="userSpaceOnUse">
      <feOffset input="SourceAlpha"/>
      <feGaussianBlur stdDeviation="2.5" result="blur-2"/>
      <feFlood flood-color="#03d5fb" result="color"/>
      <feComposite operator="out" in="SourceGraphic" in2="blur-2"/>
      <feComposite operator="in" in="color"/>
      <feComposite operator="in" in2="SourceGraphic"/>
    </filter>
    <filter id="Union_4" x="0" y="26" width="125" height="35" filterUnits="userSpaceOnUse">
      <feOffset input="SourceAlpha"/>
      <feGaussianBlur stdDeviation="3.5" result="blur-3"/>
      <feFlood flood-color="#03d5fb"/>
      <feComposite operator="in" in2="blur-3"/>
    </filter>
    <filter id="Union_4-2" x="0" y="26" width="125" height="35" filterUnits="userSpaceOnUse">
      <feOffset input="SourceAlpha"/>
      <feGaussianBlur stdDeviation="2.5" result="blur-4"/>
      <feFlood flood-color="#03d5fb" result="color-2"/>
      <feComposite operator="out" in="SourceGraphic" in2="blur-4"/>
      <feComposite operator="in" in="color-2"/>
      <feComposite operator="in" in2="SourceGraphic"/>
    </filter>
    <filter id="Line_1" x="38.076" y="6.413" width="49.444" height="47.558" filterUnits="userSpaceOnUse">
      <feOffset input="SourceAlpha"/>
      <feGaussianBlur stdDeviation="3.5" result="blur-5"/>
      <feFlood flood-color="#03d5fb"/>
      <feComposite operator="in" in2="blur-5"/>
      <feComposite in="SourceGraphic"/>
    </filter>
    <filter id="Line_2" x="38.076" y="6.413" width="49.444" height="47.558" filterUnits="userSpaceOnUse">
      <feOffset input="SourceAlpha"/>
      <feGaussianBlur stdDeviation="3.5" result="blur-6"/>
      <feFlood flood-color="#03d5fb"/>
      <feComposite operator="in" in2="blur-6"/>
      <feComposite in="SourceGraphic"/>
    </filter>
    <filter id="Line_3" x="19.192" y="12.913" width="22" height="34.236" filterUnits="userSpaceOnUse">
      <feOffset input="SourceAlpha"/>
      <feGaussianBlur stdDeviation="3.5" result="blur-7"/>
      <feFlood flood-color="#03d5fb"/>
      <feComposite operator="in" in2="blur-7"/>
      <feComposite in="SourceGraphic"/>
    </filter>
    <filter id="Line_4" x="85.049" y="12.913" width="22" height="34.236" filterUnits="userSpaceOnUse">
      <feOffset input="SourceAlpha"/>
      <feGaussianBlur stdDeviation="3.5" result="blur-8"/>
      <feFlood flood-color="#03d5fb"/>
      <feComposite operator="in" in2="blur-8"/>
      <feComposite in="SourceGraphic"/>
    </filter>
    <filter id="Union_5" x="124" y="0" width="129.001" height="61" filterUnits="userSpaceOnUse">
      <feOffset input="SourceAlpha"/>
      <feGaussianBlur stdDeviation="3.5" result="blur-9"/>
      <feFlood flood-color="#03d5fb"/>
      <feComposite operator="in" in2="blur-9"/>
    </filter>
    <filter id="Union_5-2" x="124" y="0" width="129.001" height="61" filterUnits="userSpaceOnUse">
      <feOffset input="SourceAlpha"/>
      <feGaussianBlur stdDeviation="2.5" result="blur-10"/>
      <feFlood flood-color="#03d5fb" result="color-3"/>
      <feComposite operator="out" in="SourceGraphic" in2="blur-10"/>
      <feComposite operator="in" in="color-3"/>
      <feComposite operator="in" in2="SourceGraphic"/>
    </filter>
  </defs>
  <g id="Group_246" data-name="Group 246" transform="translate(-1008.5 -650.5)">
    <g id="Group_212" data-name="Group 212" transform="translate(-210 249)">
      <g data-type="innerShadowGroup">
        <g transform="matrix(1, 0, 0, 1, 1218.5, 401.5)" filter="url(#Union_3)">
          <g id="Union_3-3" data-name="Union 3" transform="translate(10.5 10.5)" fill="none">
            <path d="M70.482,14a5,5,0,0,1-5-5V7.7H38.518V7H65.481V5a5,5,0,0,1,5-5H99a5,5,0,0,1,5,5V9a5,5,0,0,1-5,5ZM5,14A5,5,0,0,1,0,9V5A5,5,0,0,1,5,0H33.519a5,5,0,0,1,5,5V9a5,5,0,0,1-5,5Z" stroke="none"/>
            <path d="M 99 12.99950695037842 C 101.2058334350586 12.99950695037842 103.0004043579102 11.20533561706543 103.0004043579102 8.999993324279785 L 103.0004043579102 5.000407218933105 C 103.0004043579102 2.794578790664673 101.2058334350586 1.000007271766663 99 1.000007271766663 L 70.48170471191406 1.000007271766663 C 68.27587127685547 1.000007271766663 66.48130035400391 2.794578790664673 66.48130035400391 5.000407218933105 L 66.48130035400391 8.999993324279785 C 66.48130035400391 11.20533561706543 68.27587127685547 12.99950695037842 70.48170471191406 12.99950695037842 L 99 12.99950695037842 M 33.51870346069336 12.99950695037842 C 35.72402954101562 12.99950695037842 37.51820373535156 11.20533561706543 37.51820373535156 8.999993324279785 L 37.51820373535156 5.000407218933105 C 37.51820373535156 2.794578790664673 35.72402954101562 1.000007271766663 33.51870346069336 1.000007271766663 L 5.000401973724365 1.000007271766663 C 2.794573545455933 1.000007271766663 1.000002145767212 2.794578790664673 1.000002145767212 5.000407218933105 L 1.000002145767212 8.999993324279785 C 1.000002145767212 11.20533561706543 2.794573545455933 12.99950695037842 5.000401973724365 12.99950695037842 L 33.51870346069336 12.99950695037842 M 99 13.99950695037842 L 70.48170471191406 13.99950695037842 C 67.72050476074219 13.99950695037842 65.48130035400391 11.76120758056641 65.48130035400391 8.999993324279785 L 65.48130035400391 7.7004075050354 L 38.51820373535156 7.7004075050354 L 38.51820373535156 7.000207424163818 L 65.48130035400391 7.000207424163818 L 65.48130035400391 5.000407218933105 C 65.48130035400391 2.238307237625122 67.72050476074219 7.280186309799319e-06 70.48170471191406 7.280186309799319e-06 L 99 7.280186309799319e-06 C 101.7621002197266 7.280186309799319e-06 104.0004043579102 2.238307237625122 104.0004043579102 5.000407218933105 L 104.0004043579102 8.999993324279785 C 104.0004043579102 11.76120758056641 101.7621002197266 13.99950695037842 99 13.99950695037842 Z M 33.51870346069336 13.99950695037842 L 5.000401973724365 13.99950695037842 C 2.238302230834961 13.99950695037842 2.178955128329108e-06 11.76120758056641 2.178955128329108e-06 8.999993324279785 L 2.178955128329108e-06 5.000407218933105 C 2.178955128329108e-06 2.238307237625122 2.238302230834961 7.280186309799319e-06 5.000401973724365 7.280186309799319e-06 L 33.51870346069336 7.280186309799319e-06 C 36.27990341186523 7.280186309799319e-06 38.51820373535156 2.238307237625122 38.51820373535156 5.000407218933105 L 38.51820373535156 8.999993324279785 C 38.51820373535156 11.76120758056641 36.27990341186523 13.99950695037842 33.51870346069336 13.99950695037842 Z" stroke="none" fill="#03d5fb"/>
          </g>
        </g>
        <g transform="matrix(1, 0, 0, 1, 1218.5, 401.5)" filter="url(#Union_3-2)">
          <g id="Union_3-4" data-name="Union 3" transform="translate(10.5 10.5)" fill="#fff">
            <path d="M70.482,14a5,5,0,0,1-5-5V7.7H38.518V7H65.481V5a5,5,0,0,1,5-5H99a5,5,0,0,1,5,5V9a5,5,0,0,1-5,5ZM5,14A5,5,0,0,1,0,9V5A5,5,0,0,1,5,0H33.519a5,5,0,0,1,5,5V9a5,5,0,0,1-5,5Z" stroke="none"/>
            <path d="M 99 12.99950695037842 C 101.2058334350586 12.99950695037842 103.0004043579102 11.20533561706543 103.0004043579102 8.999993324279785 L 103.0004043579102 5.000407218933105 C 103.0004043579102 2.794578790664673 101.2058334350586 1.000007271766663 99 1.000007271766663 L 70.48170471191406 1.000007271766663 C 68.27587127685547 1.000007271766663 66.48130035400391 2.794578790664673 66.48130035400391 5.000407218933105 L 66.48130035400391 8.999993324279785 C 66.48130035400391 11.20533561706543 68.27587127685547 12.99950695037842 70.48170471191406 12.99950695037842 L 99 12.99950695037842 M 33.51870346069336 12.99950695037842 C 35.72402954101562 12.99950695037842 37.51820373535156 11.20533561706543 37.51820373535156 8.999993324279785 L 37.51820373535156 5.000407218933105 C 37.51820373535156 2.794578790664673 35.72402954101562 1.000007271766663 33.51870346069336 1.000007271766663 L 5.000401973724365 1.000007271766663 C 2.794573545455933 1.000007271766663 1.000002145767212 2.794578790664673 1.000002145767212 5.000407218933105 L 1.000002145767212 8.999993324279785 C 1.000002145767212 11.20533561706543 2.794573545455933 12.99950695037842 5.000401973724365 12.99950695037842 L 33.51870346069336 12.99950695037842 M 99 13.99950695037842 L 70.48170471191406 13.99950695037842 C 67.72050476074219 13.99950695037842 65.48130035400391 11.76120758056641 65.48130035400391 8.999993324279785 L 65.48130035400391 7.7004075050354 L 38.51820373535156 7.7004075050354 L 38.51820373535156 7.000207424163818 L 65.48130035400391 7.000207424163818 L 65.48130035400391 5.000407218933105 C 65.48130035400391 2.238307237625122 67.72050476074219 7.280186309799319e-06 70.48170471191406 7.280186309799319e-06 L 99 7.280186309799319e-06 C 101.7621002197266 7.280186309799319e-06 104.0004043579102 2.238307237625122 104.0004043579102 5.000407218933105 L 104.0004043579102 8.999993324279785 C 104.0004043579102 11.76120758056641 101.7621002197266 13.99950695037842 99 13.99950695037842 Z M 33.51870346069336 13.99950695037842 L 5.000401973724365 13.99950695037842 C 2.238302230834961 13.99950695037842 2.178955128329108e-06 11.76120758056641 2.178955128329108e-06 8.999993324279785 L 2.178955128329108e-06 5.000407218933105 C 2.178955128329108e-06 2.238307237625122 2.238302230834961 7.280186309799319e-06 5.000401973724365 7.280186309799319e-06 L 33.51870346069336 7.280186309799319e-06 C 36.27990341186523 7.280186309799319e-06 38.51820373535156 2.238307237625122 38.51820373535156 5.000407218933105 L 38.51820373535156 8.999993324279785 C 38.51820373535156 11.76120758056641 36.27990341186523 13.99950695037842 33.51870346069336 13.99950695037842 Z" stroke="none"/>
          </g>
        </g>
        <g id="Union_3-5" data-name="Union 3" transform="translate(1229 412)" fill="none">
          <path d="M70.482,14a5,5,0,0,1-5-5V7.7H38.518V7H65.481V5a5,5,0,0,1,5-5H99a5,5,0,0,1,5,5V9a5,5,0,0,1-5,5ZM5,14A5,5,0,0,1,0,9V5A5,5,0,0,1,5,0H33.519a5,5,0,0,1,5,5V9a5,5,0,0,1-5,5Z" stroke="none"/>
          <path d="M 99 12.99950695037842 C 101.2058334350586 12.99950695037842 103.0004043579102 11.20533561706543 103.0004043579102 8.999993324279785 L 103.0004043579102 5.000407218933105 C 103.0004043579102 2.794578790664673 101.2058334350586 1.000007271766663 99 1.000007271766663 L 70.48170471191406 1.000007271766663 C 68.27587127685547 1.000007271766663 66.48130035400391 2.794578790664673 66.48130035400391 5.000407218933105 L 66.48130035400391 8.999993324279785 C 66.48130035400391 11.20533561706543 68.27587127685547 12.99950695037842 70.48170471191406 12.99950695037842 L 99 12.99950695037842 M 33.51870346069336 12.99950695037842 C 35.72402954101562 12.99950695037842 37.51820373535156 11.20533561706543 37.51820373535156 8.999993324279785 L 37.51820373535156 5.000407218933105 C 37.51820373535156 2.794578790664673 35.72402954101562 1.000007271766663 33.51870346069336 1.000007271766663 L 5.000401973724365 1.000007271766663 C 2.794573545455933 1.000007271766663 1.000002145767212 2.794578790664673 1.000002145767212 5.000407218933105 L 1.000002145767212 8.999993324279785 C 1.000002145767212 11.20533561706543 2.794573545455933 12.99950695037842 5.000401973724365 12.99950695037842 L 33.51870346069336 12.99950695037842 M 99 13.99950695037842 L 70.48170471191406 13.99950695037842 C 67.72050476074219 13.99950695037842 65.48130035400391 11.76120758056641 65.48130035400391 8.999993324279785 L 65.48130035400391 7.7004075050354 L 38.51820373535156 7.7004075050354 L 38.51820373535156 7.000207424163818 L 65.48130035400391 7.000207424163818 L 65.48130035400391 5.000407218933105 C 65.48130035400391 2.238307237625122 67.72050476074219 7.280186309799319e-06 70.48170471191406 7.280186309799319e-06 L 99 7.280186309799319e-06 C 101.7621002197266 7.280186309799319e-06 104.0004043579102 2.238307237625122 104.0004043579102 5.000407218933105 L 104.0004043579102 8.999993324279785 C 104.0004043579102 11.76120758056641 101.7621002197266 13.99950695037842 99 13.99950695037842 Z M 33.51870346069336 13.99950695037842 L 5.000401973724365 13.99950695037842 C 2.238302230834961 13.99950695037842 2.178955128329108e-06 11.76120758056641 2.178955128329108e-06 8.999993324279785 L 2.178955128329108e-06 5.000407218933105 C 2.178955128329108e-06 2.238307237625122 2.238302230834961 7.280186309799319e-06 5.000401973724365 7.280186309799319e-06 L 33.51870346069336 7.280186309799319e-06 C 36.27990341186523 7.280186309799319e-06 38.51820373535156 2.238307237625122 38.51820373535156 5.000407218933105 L 38.51820373535156 8.999993324279785 C 38.51820373535156 11.76120758056641 36.27990341186523 13.99950695037842 33.51870346069336 13.99950695037842 Z" stroke="none" fill="#03d5fb"/>
        </g>
      </g>
      <g data-type="innerShadowGroup">
        <g transform="matrix(1, 0, 0, 1, 1218.5, 401.5)" filter="url(#Union_4)">
          <g id="Union_4-3" data-name="Union 4" transform="translate(10.5 36.5)" fill="none">
            <path d="M70.482,14a5,5,0,0,1-5-5V7.7H38.518V7H65.481V5a5,5,0,0,1,5-5H99a5,5,0,0,1,5,5V9a5,5,0,0,1-5,5ZM5,14A5,5,0,0,1,0,9V5A5,5,0,0,1,5,0H33.519a5,5,0,0,1,5,5V9a5,5,0,0,1-5,5Z" stroke="none"/>
            <path d="M 99 12.99950695037842 C 101.2058334350586 12.99950695037842 103.0004043579102 11.20533561706543 103.0004043579102 8.999993324279785 L 103.0004043579102 5.000407218933105 C 103.0004043579102 2.794578790664673 101.2058334350586 1.000007271766663 99 1.000007271766663 L 70.48170471191406 1.000007271766663 C 68.27587127685547 1.000007271766663 66.48130035400391 2.794578790664673 66.48130035400391 5.000407218933105 L 66.48130035400391 8.999993324279785 C 66.48130035400391 11.20533561706543 68.27587127685547 12.99950695037842 70.48170471191406 12.99950695037842 L 99 12.99950695037842 M 33.51870346069336 12.99950695037842 C 35.72402954101562 12.99950695037842 37.51820373535156 11.20533561706543 37.51820373535156 8.999993324279785 L 37.51820373535156 5.000407218933105 C 37.51820373535156 2.794578790664673 35.72402954101562 1.000007271766663 33.51870346069336 1.000007271766663 L 5.000401973724365 1.000007271766663 C 2.794573545455933 1.000007271766663 1.000002145767212 2.794578790664673 1.000002145767212 5.000407218933105 L 1.000002145767212 8.999993324279785 C 1.000002145767212 11.20533561706543 2.794573545455933 12.99950695037842 5.000401973724365 12.99950695037842 L 33.51870346069336 12.99950695037842 M 99 13.99950695037842 L 70.48170471191406 13.99950695037842 C 67.72050476074219 13.99950695037842 65.48130035400391 11.76120758056641 65.48130035400391 8.999993324279785 L 65.48130035400391 7.7004075050354 L 38.51820373535156 7.7004075050354 L 38.51820373535156 7.000207424163818 L 65.48130035400391 7.000207424163818 L 65.48130035400391 5.000407218933105 C 65.48130035400391 2.238307237625122 67.72050476074219 7.280186309799319e-06 70.48170471191406 7.280186309799319e-06 L 99 7.280186309799319e-06 C 101.7621002197266 7.280186309799319e-06 104.0004043579102 2.238307237625122 104.0004043579102 5.000407218933105 L 104.0004043579102 8.999993324279785 C 104.0004043579102 11.76120758056641 101.7621002197266 13.99950695037842 99 13.99950695037842 Z M 33.51870346069336 13.99950695037842 L 5.000401973724365 13.99950695037842 C 2.238302230834961 13.99950695037842 2.178955128329108e-06 11.76120758056641 2.178955128329108e-06 8.999993324279785 L 2.178955128329108e-06 5.000407218933105 C 2.178955128329108e-06 2.238307237625122 2.238302230834961 7.280186309799319e-06 5.000401973724365 7.280186309799319e-06 L 33.51870346069336 7.280186309799319e-06 C 36.27990341186523 7.280186309799319e-06 38.51820373535156 2.238307237625122 38.51820373535156 5.000407218933105 L 38.51820373535156 8.999993324279785 C 38.51820373535156 11.76120758056641 36.27990341186523 13.99950695037842 33.51870346069336 13.99950695037842 Z" stroke="none" fill="#03d5fb"/>
          </g>
        </g>
        <g transform="matrix(1, 0, 0, 1, 1218.5, 401.5)" filter="url(#Union_4-2)">
          <g id="Union_4-4" data-name="Union 4" transform="translate(10.5 36.5)" fill="#fff">
            <path d="M70.482,14a5,5,0,0,1-5-5V7.7H38.518V7H65.481V5a5,5,0,0,1,5-5H99a5,5,0,0,1,5,5V9a5,5,0,0,1-5,5ZM5,14A5,5,0,0,1,0,9V5A5,5,0,0,1,5,0H33.519a5,5,0,0,1,5,5V9a5,5,0,0,1-5,5Z" stroke="none"/>
            <path d="M 99 12.99950695037842 C 101.2058334350586 12.99950695037842 103.0004043579102 11.20533561706543 103.0004043579102 8.999993324279785 L 103.0004043579102 5.000407218933105 C 103.0004043579102 2.794578790664673 101.2058334350586 1.000007271766663 99 1.000007271766663 L 70.48170471191406 1.000007271766663 C 68.27587127685547 1.000007271766663 66.48130035400391 2.794578790664673 66.48130035400391 5.000407218933105 L 66.48130035400391 8.999993324279785 C 66.48130035400391 11.20533561706543 68.27587127685547 12.99950695037842 70.48170471191406 12.99950695037842 L 99 12.99950695037842 M 33.51870346069336 12.99950695037842 C 35.72402954101562 12.99950695037842 37.51820373535156 11.20533561706543 37.51820373535156 8.999993324279785 L 37.51820373535156 5.000407218933105 C 37.51820373535156 2.794578790664673 35.72402954101562 1.000007271766663 33.51870346069336 1.000007271766663 L 5.000401973724365 1.000007271766663 C 2.794573545455933 1.000007271766663 1.000002145767212 2.794578790664673 1.000002145767212 5.000407218933105 L 1.000002145767212 8.999993324279785 C 1.000002145767212 11.20533561706543 2.794573545455933 12.99950695037842 5.000401973724365 12.99950695037842 L 33.51870346069336 12.99950695037842 M 99 13.99950695037842 L 70.48170471191406 13.99950695037842 C 67.72050476074219 13.99950695037842 65.48130035400391 11.76120758056641 65.48130035400391 8.999993324279785 L 65.48130035400391 7.7004075050354 L 38.51820373535156 7.7004075050354 L 38.51820373535156 7.000207424163818 L 65.48130035400391 7.000207424163818 L 65.48130035400391 5.000407218933105 C 65.48130035400391 2.238307237625122 67.72050476074219 7.280186309799319e-06 70.48170471191406 7.280186309799319e-06 L 99 7.280186309799319e-06 C 101.7621002197266 7.280186309799319e-06 104.0004043579102 2.238307237625122 104.0004043579102 5.000407218933105 L 104.0004043579102 8.999993324279785 C 104.0004043579102 11.76120758056641 101.7621002197266 13.99950695037842 99 13.99950695037842 Z M 33.51870346069336 13.99950695037842 L 5.000401973724365 13.99950695037842 C 2.238302230834961 13.99950695037842 2.178955128329108e-06 11.76120758056641 2.178955128329108e-06 8.999993324279785 L 2.178955128329108e-06 5.000407218933105 C 2.178955128329108e-06 2.238307237625122 2.238302230834961 7.280186309799319e-06 5.000401973724365 7.280186309799319e-06 L 33.51870346069336 7.280186309799319e-06 C 36.27990341186523 7.280186309799319e-06 38.51820373535156 2.238307237625122 38.51820373535156 5.000407218933105 L 38.51820373535156 8.999993324279785 C 38.51820373535156 11.76120758056641 36.27990341186523 13.99950695037842 33.51870346069336 13.99950695037842 Z" stroke="none"/>
          </g>
        </g>
        <g id="Union_4-5" data-name="Union 4" transform="translate(1229 438)" fill="none">
          <path d="M70.482,14a5,5,0,0,1-5-5V7.7H38.518V7H65.481V5a5,5,0,0,1,5-5H99a5,5,0,0,1,5,5V9a5,5,0,0,1-5,5ZM5,14A5,5,0,0,1,0,9V5A5,5,0,0,1,5,0H33.519a5,5,0,0,1,5,5V9a5,5,0,0,1-5,5Z" stroke="none"/>
          <path d="M 99 12.99950695037842 C 101.2058334350586 12.99950695037842 103.0004043579102 11.20533561706543 103.0004043579102 8.999993324279785 L 103.0004043579102 5.000407218933105 C 103.0004043579102 2.794578790664673 101.2058334350586 1.000007271766663 99 1.000007271766663 L 70.48170471191406 1.000007271766663 C 68.27587127685547 1.000007271766663 66.48130035400391 2.794578790664673 66.48130035400391 5.000407218933105 L 66.48130035400391 8.999993324279785 C 66.48130035400391 11.20533561706543 68.27587127685547 12.99950695037842 70.48170471191406 12.99950695037842 L 99 12.99950695037842 M 33.51870346069336 12.99950695037842 C 35.72402954101562 12.99950695037842 37.51820373535156 11.20533561706543 37.51820373535156 8.999993324279785 L 37.51820373535156 5.000407218933105 C 37.51820373535156 2.794578790664673 35.72402954101562 1.000007271766663 33.51870346069336 1.000007271766663 L 5.000401973724365 1.000007271766663 C 2.794573545455933 1.000007271766663 1.000002145767212 2.794578790664673 1.000002145767212 5.000407218933105 L 1.000002145767212 8.999993324279785 C 1.000002145767212 11.20533561706543 2.794573545455933 12.99950695037842 5.000401973724365 12.99950695037842 L 33.51870346069336 12.99950695037842 M 99 13.99950695037842 L 70.48170471191406 13.99950695037842 C 67.72050476074219 13.99950695037842 65.48130035400391 11.76120758056641 65.48130035400391 8.999993324279785 L 65.48130035400391 7.7004075050354 L 38.51820373535156 7.7004075050354 L 38.51820373535156 7.000207424163818 L 65.48130035400391 7.000207424163818 L 65.48130035400391 5.000407218933105 C 65.48130035400391 2.238307237625122 67.72050476074219 7.280186309799319e-06 70.48170471191406 7.280186309799319e-06 L 99 7.280186309799319e-06 C 101.7621002197266 7.280186309799319e-06 104.0004043579102 2.238307237625122 104.0004043579102 5.000407218933105 L 104.0004043579102 8.999993324279785 C 104.0004043579102 11.76120758056641 101.7621002197266 13.99950695037842 99 13.99950695037842 Z M 33.51870346069336 13.99950695037842 L 5.000401973724365 13.99950695037842 C 2.238302230834961 13.99950695037842 2.178955128329108e-06 11.76120758056641 2.178955128329108e-06 8.999993324279785 L 2.178955128329108e-06 5.000407218933105 C 2.178955128329108e-06 2.238307237625122 2.238302230834961 7.280186309799319e-06 5.000401973724365 7.280186309799319e-06 L 33.51870346069336 7.280186309799319e-06 C 36.27990341186523 7.280186309799319e-06 38.51820373535156 2.238307237625122 38.51820373535156 5.000407218933105 L 38.51820373535156 8.999993324279785 C 38.51820373535156 11.76120758056641 36.27990341186523 13.99950695037842 33.51870346069336 13.99950695037842 Z" stroke="none" fill="#03d5fb"/>
        </g>
      </g>
      <g transform="matrix(1, 0, 0, 1, 1218.5, 401.5)" filter="url(#Line_1)">
        <line id="Line_1-2" data-name="Line 1" x2="27.763" y2="25.826" transform="translate(48.92 17.28)" fill="none" stroke="#03d5fb" stroke-width="1"/>
      </g>
      <g transform="matrix(1, 0, 0, 1, 1218.5, 401.5)" filter="url(#Line_2)">
        <line id="Line_2-2" data-name="Line 2" x1="27.763" y2="25.826" transform="translate(48.92 17.28)" fill="none" stroke="#03d5fb" stroke-width="1"/>
      </g>
      <g transform="matrix(1, 0, 0, 1, 1218.5, 401.5)" filter="url(#Line_3)">
        <line id="Line_3-2" data-name="Line 3" y2="13.236" transform="translate(30.19 23.41)" fill="none" stroke="#03d5fb" stroke-width="1"/>
      </g>
      <g transform="matrix(1, 0, 0, 1, 1218.5, 401.5)" filter="url(#Line_4)">
        <line id="Line_4-2" data-name="Line 4" y2="13.236" transform="translate(96.05 23.41)" fill="none" stroke="#03d5fb" stroke-width="1"/>
      </g>
    </g>
    <g data-type="innerShadowGroup">
      <g transform="matrix(1, 0, 0, 1, 1008.5, 650.5)" filter="url(#Union_5)">
        <g id="Union_5-3" data-name="Union 5" transform="translate(134.5 10.5)" fill="none">
          <path d="M5,40a5,5,0,0,1-5-5V31.667a5,5,0,0,1,5-5H35a5,5,0,0,1,5,5V35a5,5,0,0,1-5,5Zm49-6.333V7.333H40V6.666H68V5a5,5,0,0,1,5-5h30a5,5,0,0,1,5,5V8.333a5,5,0,0,1-5,5H73a5,5,0,0,1-5-5v-1H54.667V33.667Zm-14,0V33H54v.667ZM5,13.333a5,5,0,0,1-5-5V5A5,5,0,0,1,5,0H35a5,5,0,0,1,5,5V8.333a5,5,0,0,1-5,5Z" stroke="none"/>
          <path d="M 35.00009155273438 39.00050735473633 C 37.20593643188477 39.00050735473633 39.00050735473633 37.20593643188477 39.00050735473633 35.00010681152344 L 39.00050735473633 31.66650772094727 C 39.00050735473633 29.46117782592773 37.20593643188477 27.66700744628906 35.00009155273438 27.66700744628906 L 5.000407218933105 27.66700744628906 C 2.794578790664673 27.66700744628906 1.000007271766663 29.46117782592773 1.000007271766663 31.66650772094727 L 1.000007271766663 35.00010681152344 C 1.000007271766663 37.20593643188477 2.794578790664673 39.00050735473633 5.000407218933105 39.00050735473633 L 35.00009155273438 39.00050735473633 M 103.0005035400391 12.33350658416748 C 105.2063369750977 12.33350658416748 107.0009078979492 10.53893566131592 107.0009078979492 8.333106994628906 L 107.0009078979492 5.000407218933105 C 107.0009078979492 2.794578552246094 105.2063369750977 1.000007033348083 103.0005035400391 1.000007033348083 L 72.99990844726562 1.000007033348083 C 70.79457855224609 1.000007033348083 69.00040435791016 2.794578552246094 69.00040435791016 5.000407218933105 L 69.00040435791016 8.333106994628906 C 69.00040435791016 10.53893566131592 70.79457855224609 12.33350658416748 72.99990844726562 12.33350658416748 L 103.0005035400391 12.33350658416748 M 35.00009155273438 12.33350658416748 C 37.20593643188477 12.33350658416748 39.00050735473633 10.53893566131592 39.00050735473633 8.333106994628906 L 39.00050735473633 5.000407218933105 C 39.00050735473633 2.794578552246094 37.20593643188477 1.000007033348083 35.00009155273438 1.000007033348083 L 5.000407218933105 1.000007033348083 C 2.794578790664673 1.000007033348083 1.000007271766663 2.794578552246094 1.000007271766663 5.000407218933105 L 1.000007271766663 8.333106994628906 C 1.000007271766663 10.53893566131592 2.794578790664673 12.33350658416748 5.000407218933105 12.33350658416748 L 35.00009155273438 12.33350658416748 M 35.00009155273438 40.00050735473633 L 5.000407218933105 40.00050735473633 C 2.238307237625122 40.00050735473633 7.27713450032752e-06 37.76130676269531 7.27713450032752e-06 35.00010681152344 L 7.27713450032752e-06 31.66650772094727 C 7.27713450032752e-06 28.90530776977539 2.238307237625122 26.66700744628906 5.000407218933105 26.66700744628906 L 35.00009155273438 26.66700744628906 C 37.76129150390625 26.66700744628906 40.00050735473633 28.90530776977539 40.00050735473633 31.66650772094727 L 40.00050735473633 35.00010681152344 C 40.00050735473633 37.76130676269531 37.76129150390625 40.00050735473633 35.00009155273438 40.00050735473633 Z M 54.66690826416016 33.66720581054688 L 53.99999237060547 33.66720581054688 L 53.99999237060547 7.333207130432129 L 40.00050735473633 7.333207130432129 L 40.00050735473633 6.666306972503662 L 68.00040435791016 6.666306972503662 L 68.00040435791016 5.000407218933105 C 68.00040435791016 2.238306999206543 70.23870849609375 7.005528004810913e-06 72.99990844726562 7.005528004810913e-06 L 103.0005035400391 7.005528004810913e-06 C 105.7617034912109 7.005528004810913e-06 108.0009078979492 2.238306999206543 108.0009078979492 5.000407218933105 L 108.0009078979492 8.333106994628906 C 108.0009078979492 11.09520721435547 105.7617034912109 13.33350658416748 103.0005035400391 13.33350658416748 L 72.99990844726562 13.33350658416748 C 70.23870849609375 13.33350658416748 68.00040435791016 11.09520721435547 68.00040435791016 8.333106994628906 L 68.00040435791016 7.333207130432129 L 54.66690826416016 7.333207130432129 L 54.66690826416016 33.66720581054688 Z M 53.99999237060547 33.66720581054688 L 40.00050735473633 33.66720581054688 L 40.00050735473633 33.00030517578125 L 53.99999237060547 33.00030517578125 L 53.99999237060547 33.66720581054688 Z M 35.00009155273438 13.33350658416748 L 5.000407218933105 13.33350658416748 C 2.238307237625122 13.33350658416748 7.27713450032752e-06 11.09520721435547 7.27713450032752e-06 8.333106994628906 L 7.27713450032752e-06 5.000407218933105 C 7.27713450032752e-06 2.238306999206543 2.238307237625122 7.005528004810913e-06 5.000407218933105 7.005528004810913e-06 L 35.00009155273438 7.005528004810913e-06 C 37.76129150390625 7.005528004810913e-06 40.00050735473633 2.238306999206543 40.00050735473633 5.000407218933105 L 40.00050735473633 8.333106994628906 C 40.00050735473633 11.09520721435547 37.76129150390625 13.33350658416748 35.00009155273438 13.33350658416748 Z" stroke="none" fill="#03d5fb"/>
        </g>
      </g>
      <g transform="matrix(1, 0, 0, 1, 1008.5, 650.5)" filter="url(#Union_5-2)">
        <g id="Union_5-4" data-name="Union 5" transform="translate(134.5 10.5)" fill="#fff">
          <path d="M5,40a5,5,0,0,1-5-5V31.667a5,5,0,0,1,5-5H35a5,5,0,0,1,5,5V35a5,5,0,0,1-5,5Zm49-6.333V7.333H40V6.666H68V5a5,5,0,0,1,5-5h30a5,5,0,0,1,5,5V8.333a5,5,0,0,1-5,5H73a5,5,0,0,1-5-5v-1H54.667V33.667Zm-14,0V33H54v.667ZM5,13.333a5,5,0,0,1-5-5V5A5,5,0,0,1,5,0H35a5,5,0,0,1,5,5V8.333a5,5,0,0,1-5,5Z" stroke="none"/>
          <path d="M 35.00009155273438 39.00050735473633 C 37.20593643188477 39.00050735473633 39.00050735473633 37.20593643188477 39.00050735473633 35.00010681152344 L 39.00050735473633 31.66650772094727 C 39.00050735473633 29.46117782592773 37.20593643188477 27.66700744628906 35.00009155273438 27.66700744628906 L 5.000407218933105 27.66700744628906 C 2.794578790664673 27.66700744628906 1.000007271766663 29.46117782592773 1.000007271766663 31.66650772094727 L 1.000007271766663 35.00010681152344 C 1.000007271766663 37.20593643188477 2.794578790664673 39.00050735473633 5.000407218933105 39.00050735473633 L 35.00009155273438 39.00050735473633 M 103.0005035400391 12.33350658416748 C 105.2063369750977 12.33350658416748 107.0009078979492 10.53893566131592 107.0009078979492 8.333106994628906 L 107.0009078979492 5.000407218933105 C 107.0009078979492 2.794578552246094 105.2063369750977 1.000007033348083 103.0005035400391 1.000007033348083 L 72.99990844726562 1.000007033348083 C 70.79457855224609 1.000007033348083 69.00040435791016 2.794578552246094 69.00040435791016 5.000407218933105 L 69.00040435791016 8.333106994628906 C 69.00040435791016 10.53893566131592 70.79457855224609 12.33350658416748 72.99990844726562 12.33350658416748 L 103.0005035400391 12.33350658416748 M 35.00009155273438 12.33350658416748 C 37.20593643188477 12.33350658416748 39.00050735473633 10.53893566131592 39.00050735473633 8.333106994628906 L 39.00050735473633 5.000407218933105 C 39.00050735473633 2.794578552246094 37.20593643188477 1.000007033348083 35.00009155273438 1.000007033348083 L 5.000407218933105 1.000007033348083 C 2.794578790664673 1.000007033348083 1.000007271766663 2.794578552246094 1.000007271766663 5.000407218933105 L 1.000007271766663 8.333106994628906 C 1.000007271766663 10.53893566131592 2.794578790664673 12.33350658416748 5.000407218933105 12.33350658416748 L 35.00009155273438 12.33350658416748 M 35.00009155273438 40.00050735473633 L 5.000407218933105 40.00050735473633 C 2.238307237625122 40.00050735473633 7.27713450032752e-06 37.76130676269531 7.27713450032752e-06 35.00010681152344 L 7.27713450032752e-06 31.66650772094727 C 7.27713450032752e-06 28.90530776977539 2.238307237625122 26.66700744628906 5.000407218933105 26.66700744628906 L 35.00009155273438 26.66700744628906 C 37.76129150390625 26.66700744628906 40.00050735473633 28.90530776977539 40.00050735473633 31.66650772094727 L 40.00050735473633 35.00010681152344 C 40.00050735473633 37.76130676269531 37.76129150390625 40.00050735473633 35.00009155273438 40.00050735473633 Z M 54.66690826416016 33.66720581054688 L 53.99999237060547 33.66720581054688 L 53.99999237060547 7.333207130432129 L 40.00050735473633 7.333207130432129 L 40.00050735473633 6.666306972503662 L 68.00040435791016 6.666306972503662 L 68.00040435791016 5.000407218933105 C 68.00040435791016 2.238306999206543 70.23870849609375 7.005528004810913e-06 72.99990844726562 7.005528004810913e-06 L 103.0005035400391 7.005528004810913e-06 C 105.7617034912109 7.005528004810913e-06 108.0009078979492 2.238306999206543 108.0009078979492 5.000407218933105 L 108.0009078979492 8.333106994628906 C 108.0009078979492 11.09520721435547 105.7617034912109 13.33350658416748 103.0005035400391 13.33350658416748 L 72.99990844726562 13.33350658416748 C 70.23870849609375 13.33350658416748 68.00040435791016 11.09520721435547 68.00040435791016 8.333106994628906 L 68.00040435791016 7.333207130432129 L 54.66690826416016 7.333207130432129 L 54.66690826416016 33.66720581054688 Z M 53.99999237060547 33.66720581054688 L 40.00050735473633 33.66720581054688 L 40.00050735473633 33.00030517578125 L 53.99999237060547 33.00030517578125 L 53.99999237060547 33.66720581054688 Z M 35.00009155273438 13.33350658416748 L 5.000407218933105 13.33350658416748 C 2.238307237625122 13.33350658416748 7.27713450032752e-06 11.09520721435547 7.27713450032752e-06 8.333106994628906 L 7.27713450032752e-06 5.000407218933105 C 7.27713450032752e-06 2.238306999206543 2.238307237625122 7.005528004810913e-06 5.000407218933105 7.005528004810913e-06 L 35.00009155273438 7.005528004810913e-06 C 37.76129150390625 7.005528004810913e-06 40.00050735473633 2.238306999206543 40.00050735473633 5.000407218933105 L 40.00050735473633 8.333106994628906 C 40.00050735473633 11.09520721435547 37.76129150390625 13.33350658416748 35.00009155273438 13.33350658416748 Z" stroke="none"/>
        </g>
      </g>
      <g id="Union_5-5" data-name="Union 5" transform="translate(1143 661)" fill="none">
        <path d="M5,40a5,5,0,0,1-5-5V31.667a5,5,0,0,1,5-5H35a5,5,0,0,1,5,5V35a5,5,0,0,1-5,5Zm49-6.333V7.333H40V6.666H68V5a5,5,0,0,1,5-5h30a5,5,0,0,1,5,5V8.333a5,5,0,0,1-5,5H73a5,5,0,0,1-5-5v-1H54.667V33.667Zm-14,0V33H54v.667ZM5,13.333a5,5,0,0,1-5-5V5A5,5,0,0,1,5,0H35a5,5,0,0,1,5,5V8.333a5,5,0,0,1-5,5Z" stroke="none"/>
        <path d="M 35.00009155273438 39.00050735473633 C 37.20593643188477 39.00050735473633 39.00050735473633 37.20593643188477 39.00050735473633 35.00010681152344 L 39.00050735473633 31.66650772094727 C 39.00050735473633 29.46117782592773 37.20593643188477 27.66700744628906 35.00009155273438 27.66700744628906 L 5.000407218933105 27.66700744628906 C 2.794578790664673 27.66700744628906 1.000007271766663 29.46117782592773 1.000007271766663 31.66650772094727 L 1.000007271766663 35.00010681152344 C 1.000007271766663 37.20593643188477 2.794578790664673 39.00050735473633 5.000407218933105 39.00050735473633 L 35.00009155273438 39.00050735473633 M 103.0005035400391 12.33350658416748 C 105.2063369750977 12.33350658416748 107.0009078979492 10.53893566131592 107.0009078979492 8.333106994628906 L 107.0009078979492 5.000407218933105 C 107.0009078979492 2.794578552246094 105.2063369750977 1.000007033348083 103.0005035400391 1.000007033348083 L 72.99990844726562 1.000007033348083 C 70.79457855224609 1.000007033348083 69.00040435791016 2.794578552246094 69.00040435791016 5.000407218933105 L 69.00040435791016 8.333106994628906 C 69.00040435791016 10.53893566131592 70.79457855224609 12.33350658416748 72.99990844726562 12.33350658416748 L 103.0005035400391 12.33350658416748 M 35.00009155273438 12.33350658416748 C 37.20593643188477 12.33350658416748 39.00050735473633 10.53893566131592 39.00050735473633 8.333106994628906 L 39.00050735473633 5.000407218933105 C 39.00050735473633 2.794578552246094 37.20593643188477 1.000007033348083 35.00009155273438 1.000007033348083 L 5.000407218933105 1.000007033348083 C 2.794578790664673 1.000007033348083 1.000007271766663 2.794578552246094 1.000007271766663 5.000407218933105 L 1.000007271766663 8.333106994628906 C 1.000007271766663 10.53893566131592 2.794578790664673 12.33350658416748 5.000407218933105 12.33350658416748 L 35.00009155273438 12.33350658416748 M 35.00009155273438 40.00050735473633 L 5.000407218933105 40.00050735473633 C 2.238307237625122 40.00050735473633 7.27713450032752e-06 37.76130676269531 7.27713450032752e-06 35.00010681152344 L 7.27713450032752e-06 31.66650772094727 C 7.27713450032752e-06 28.90530776977539 2.238307237625122 26.66700744628906 5.000407218933105 26.66700744628906 L 35.00009155273438 26.66700744628906 C 37.76129150390625 26.66700744628906 40.00050735473633 28.90530776977539 40.00050735473633 31.66650772094727 L 40.00050735473633 35.00010681152344 C 40.00050735473633 37.76130676269531 37.76129150390625 40.00050735473633 35.00009155273438 40.00050735473633 Z M 54.66690826416016 33.66720581054688 L 53.99999237060547 33.66720581054688 L 53.99999237060547 7.333207130432129 L 40.00050735473633 7.333207130432129 L 40.00050735473633 6.666306972503662 L 68.00040435791016 6.666306972503662 L 68.00040435791016 5.000407218933105 C 68.00040435791016 2.238306999206543 70.23870849609375 7.005528004810913e-06 72.99990844726562 7.005528004810913e-06 L 103.0005035400391 7.005528004810913e-06 C 105.7617034912109 7.005528004810913e-06 108.0009078979492 2.238306999206543 108.0009078979492 5.000407218933105 L 108.0009078979492 8.333106994628906 C 108.0009078979492 11.09520721435547 105.7617034912109 13.33350658416748 103.0005035400391 13.33350658416748 L 72.99990844726562 13.33350658416748 C 70.23870849609375 13.33350658416748 68.00040435791016 11.09520721435547 68.00040435791016 8.333106994628906 L 68.00040435791016 7.333207130432129 L 54.66690826416016 7.333207130432129 L 54.66690826416016 33.66720581054688 Z M 53.99999237060547 33.66720581054688 L 40.00050735473633 33.66720581054688 L 40.00050735473633 33.00030517578125 L 53.99999237060547 33.00030517578125 L 53.99999237060547 33.66720581054688 Z M 35.00009155273438 13.33350658416748 L 5.000407218933105 13.33350658416748 C 2.238307237625122 13.33350658416748 7.27713450032752e-06 11.09520721435547 7.27713450032752e-06 8.333106994628906 L 7.27713450032752e-06 5.000407218933105 C 7.27713450032752e-06 2.238306999206543 2.238307237625122 7.005528004810913e-06 5.000407218933105 7.005528004810913e-06 L 35.00009155273438 7.005528004810913e-06 C 37.76129150390625 7.005528004810913e-06 40.00050735473633 2.238306999206543 40.00050735473633 5.000407218933105 L 40.00050735473633 8.333106994628906 C 40.00050735473633 11.09520721435547 37.76129150390625 13.33350658416748 35.00009155273438 13.33350658416748 Z" stroke="none" fill="#03d5fb"/>
      </g>
    </g>
  </g>
</svg>
