<svg xmlns="http://www.w3.org/2000/svg" xmlns:xlink="http://www.w3.org/1999/xlink" width="183" height="81" viewBox="0 0 183 81">
  <defs>
    <filter id="Union_1" x="0" y="0" width="183" height="81" filterUnits="userSpaceOnUse">
      <feOffset input="SourceAlpha"/>
      <feGaussianBlur stdDeviation="3.5" result="blur"/>
      <feFlood flood-color="#03d5fb"/>
      <feComposite operator="in" in2="blur"/>
    </filter>
    <filter id="Union_1-2" x="0" y="0" width="183" height="81" filterUnits="userSpaceOnUse">
      <feOffset input="SourceAlpha"/>
      <feGaussianBlur stdDeviation="2.5" result="blur-2"/>
      <feFlood flood-color="#03d5fb" result="color"/>
      <feComposite operator="out" in="SourceGraphic" in2="blur-2"/>
      <feComposite operator="in" in="color"/>
      <feComposite operator="in" in2="SourceGraphic"/>
    </filter>
  </defs>
  <g data-type="innerShadowGroup">
    <g transform="matrix(1, 0, 0, 1, 0, 0)" filter="url(#Union_1)">
      <g id="Union_1-3" data-name="Union 1" transform="translate(10.5 74.5)" fill="none">
        <path d="M5-4A5,5,0,0,1,0-9V-19a5,5,0,0,1,5-5H55a5,5,0,0,1,5,5V-9a5,5,0,0,1-5,5Zm55-9.5v-1H80.5V-53H60v-1H81.5v19.5H102V-39a5,5,0,0,1,5-5h50a5,5,0,0,1,5,5v10a5,5,0,0,1-5,5H107a5,5,0,0,1-5-5v-4.5H81.5v20ZM5-44a5,5,0,0,1-5-5V-59a5,5,0,0,1,5-5H55a5,5,0,0,1,5,5v10a5,5,0,0,1-5,5Z" stroke="none"/>
        <path d="M 54.99989700317383 -4.999602317810059 C 57.20573043823242 -4.999602317810059 59.00028991699219 -6.794165134429932 59.00028991699219 -8.999998092651367 L 59.00028991699219 -18.99989318847656 C 59.00028991699219 -21.20572662353516 57.20573043823242 -23.00031089782715 54.99989700317383 -23.00031089782715 L 5.000395774841309 -23.00031089782715 C 2.794562578201294 -23.00031089782715 1 -21.20572662353516 1 -18.99989318847656 L 1 -8.999998092651367 C 1 -6.794165134429932 2.794562578201294 -4.999602317810059 5.000395774841309 -4.999602317810059 L 54.99989700317383 -4.999602317810059 M 156.9996032714844 -25.00031089782715 C 159.2054443359375 -25.00031089782715 161 -26.79447746276855 161 -28.99981117248535 L 161 -38.99970626831055 C 161 -41.20553970336914 159.2054443359375 -43.00010299682617 156.9996032714844 -43.00010299682617 L 107.0001068115234 -43.00010299682617 C 104.7942733764648 -43.00010299682617 102.9997100830078 -41.20553970336914 102.9997100830078 -38.99970626831055 L 102.9997100830078 -28.99981117248535 C 102.9997100830078 -26.79447746276855 104.7942733764648 -25.00031089782715 107.0001068115234 -25.00031089782715 L 156.9996032714844 -25.00031089782715 M 54.99989700317383 -45.00010299682617 C 57.20573043823242 -45.00010299682617 59.00028991699219 -46.79426956176758 59.00028991699219 -48.99960327148438 L 59.00028991699219 -59.00039291381836 C 59.00028991699219 -61.20572662353516 57.20573043823242 -62.99989318847656 54.99989700317383 -62.99989318847656 L 5.000395774841309 -62.99989318847656 C 2.794562578201294 -62.99989318847656 1 -61.20572662353516 1 -59.00039291381836 L 1 -48.99960327148438 C 1 -46.79426956176758 2.794562578201294 -45.00010299682617 5.000395774841309 -45.00010299682617 L 54.99989700317383 -45.00010299682617 M 54.99989700317383 -3.999602317810059 L 5.000395774841309 -3.999602317810059 C 2.23829174041748 -3.999602317810059 1.4210854715202e-14 -6.238790035247803 1.4210854715202e-14 -8.999998092651367 L 1.4210854715202e-14 -18.99989318847656 C 1.4210854715202e-14 -21.7611026763916 2.23829174041748 -24.00031089782715 5.000395774841309 -24.00031089782715 L 54.99989700317383 -24.00031089782715 C 57.76110458374023 -24.00031089782715 60.00028991699219 -21.7611026763916 60.00028991699219 -18.99989318847656 L 60.00028991699219 -8.999998092651367 C 60.00028991699219 -6.238790035247803 57.76110458374023 -3.999602317810059 54.99989700317383 -3.999602317810059 Z M 81.49949645996094 -13.49999809265137 L 60.00028991699219 -13.49999809265137 L 60.00028991699219 -14.49989414215088 L 80.49960327148438 -14.49989414215088 L 80.49960327148438 -53.00010299682617 L 60.00028991699219 -53.00010299682617 L 60.00028991699219 -54 L 81.50039672851562 -54 L 81.49949645996094 -34.49970626831055 L 101.9997100830078 -34.49970626831055 L 101.9997100830078 -38.99970626831055 C 101.9997100830078 -41.76181030273438 104.238899230957 -44.00010299682617 107.0001068115234 -44.00010299682617 L 156.9996032714844 -44.00010299682617 C 159.7617034912109 -44.00010299682617 162 -41.76181030273438 162 -38.99970626831055 L 162 -28.99981117248535 C 162 -26.23860168457031 159.7617034912109 -24.00031089782715 156.9996032714844 -24.00031089782715 L 107.0001068115234 -24.00031089782715 C 104.238899230957 -24.00031089782715 101.9997100830078 -26.23860168457031 101.9997100830078 -28.99981117248535 L 101.9997100830078 -33.49980926513672 L 81.49949645996094 -33.49980926513672 L 81.49949645996094 -13.49999809265137 Z M 54.99989700317383 -44.00010299682617 L 5.000395774841309 -44.00010299682617 C 2.23829174041748 -44.00010299682617 1.4210854715202e-14 -46.23839569091797 1.4210854715202e-14 -48.99960327148438 L 1.4210854715202e-14 -59.00039291381836 C 1.4210854715202e-14 -61.76160049438477 2.23829174041748 -63.99989318847656 5.000395774841309 -63.99989318847656 L 54.99989700317383 -63.99989318847656 C 57.76110458374023 -63.99989318847656 60.00028991699219 -61.76160049438477 60.00028991699219 -59.00039291381836 L 60.00028991699219 -48.99960327148438 C 60.00028991699219 -46.23839569091797 57.76110458374023 -44.00010299682617 54.99989700317383 -44.00010299682617 Z" stroke="none" fill="#03d5fb"/>
      </g>
    </g>
    <g transform="matrix(1, 0, 0, 1, 0, 0)" filter="url(#Union_1-2)">
      <g id="Union_1-4" data-name="Union 1" transform="translate(10.5 74.5)" fill="#fff">
        <path d="M5-4A5,5,0,0,1,0-9V-19a5,5,0,0,1,5-5H55a5,5,0,0,1,5,5V-9a5,5,0,0,1-5,5Zm55-9.5v-1H80.5V-53H60v-1H81.5v19.5H102V-39a5,5,0,0,1,5-5h50a5,5,0,0,1,5,5v10a5,5,0,0,1-5,5H107a5,5,0,0,1-5-5v-4.5H81.5v20ZM5-44a5,5,0,0,1-5-5V-59a5,5,0,0,1,5-5H55a5,5,0,0,1,5,5v10a5,5,0,0,1-5,5Z" stroke="none"/>
        <path d="M 54.99989700317383 -4.999602317810059 C 57.20573043823242 -4.999602317810059 59.00028991699219 -6.794165134429932 59.00028991699219 -8.999998092651367 L 59.00028991699219 -18.99989318847656 C 59.00028991699219 -21.20572662353516 57.20573043823242 -23.00031089782715 54.99989700317383 -23.00031089782715 L 5.000395774841309 -23.00031089782715 C 2.794562578201294 -23.00031089782715 1 -21.20572662353516 1 -18.99989318847656 L 1 -8.999998092651367 C 1 -6.794165134429932 2.794562578201294 -4.999602317810059 5.000395774841309 -4.999602317810059 L 54.99989700317383 -4.999602317810059 M 156.9996032714844 -25.00031089782715 C 159.2054443359375 -25.00031089782715 161 -26.79447746276855 161 -28.99981117248535 L 161 -38.99970626831055 C 161 -41.20553970336914 159.2054443359375 -43.00010299682617 156.9996032714844 -43.00010299682617 L 107.0001068115234 -43.00010299682617 C 104.7942733764648 -43.00010299682617 102.9997100830078 -41.20553970336914 102.9997100830078 -38.99970626831055 L 102.9997100830078 -28.99981117248535 C 102.9997100830078 -26.79447746276855 104.7942733764648 -25.00031089782715 107.0001068115234 -25.00031089782715 L 156.9996032714844 -25.00031089782715 M 54.99989700317383 -45.00010299682617 C 57.20573043823242 -45.00010299682617 59.00028991699219 -46.79426956176758 59.00028991699219 -48.99960327148438 L 59.00028991699219 -59.00039291381836 C 59.00028991699219 -61.20572662353516 57.20573043823242 -62.99989318847656 54.99989700317383 -62.99989318847656 L 5.000395774841309 -62.99989318847656 C 2.794562578201294 -62.99989318847656 1 -61.20572662353516 1 -59.00039291381836 L 1 -48.99960327148438 C 1 -46.79426956176758 2.794562578201294 -45.00010299682617 5.000395774841309 -45.00010299682617 L 54.99989700317383 -45.00010299682617 M 54.99989700317383 -3.999602317810059 L 5.000395774841309 -3.999602317810059 C 2.23829174041748 -3.999602317810059 1.4210854715202e-14 -6.238790035247803 1.4210854715202e-14 -8.999998092651367 L 1.4210854715202e-14 -18.99989318847656 C 1.4210854715202e-14 -21.7611026763916 2.23829174041748 -24.00031089782715 5.000395774841309 -24.00031089782715 L 54.99989700317383 -24.00031089782715 C 57.76110458374023 -24.00031089782715 60.00028991699219 -21.7611026763916 60.00028991699219 -18.99989318847656 L 60.00028991699219 -8.999998092651367 C 60.00028991699219 -6.238790035247803 57.76110458374023 -3.999602317810059 54.99989700317383 -3.999602317810059 Z M 81.49949645996094 -13.49999809265137 L 60.00028991699219 -13.49999809265137 L 60.00028991699219 -14.49989414215088 L 80.49960327148438 -14.49989414215088 L 80.49960327148438 -53.00010299682617 L 60.00028991699219 -53.00010299682617 L 60.00028991699219 -54 L 81.50039672851562 -54 L 81.49949645996094 -34.49970626831055 L 101.9997100830078 -34.49970626831055 L 101.9997100830078 -38.99970626831055 C 101.9997100830078 -41.76181030273438 104.238899230957 -44.00010299682617 107.0001068115234 -44.00010299682617 L 156.9996032714844 -44.00010299682617 C 159.7617034912109 -44.00010299682617 162 -41.76181030273438 162 -38.99970626831055 L 162 -28.99981117248535 C 162 -26.23860168457031 159.7617034912109 -24.00031089782715 156.9996032714844 -24.00031089782715 L 107.0001068115234 -24.00031089782715 C 104.238899230957 -24.00031089782715 101.9997100830078 -26.23860168457031 101.9997100830078 -28.99981117248535 L 101.9997100830078 -33.49980926513672 L 81.49949645996094 -33.49980926513672 L 81.49949645996094 -13.49999809265137 Z M 54.99989700317383 -44.00010299682617 L 5.000395774841309 -44.00010299682617 C 2.23829174041748 -44.00010299682617 1.4210854715202e-14 -46.23839569091797 1.4210854715202e-14 -48.99960327148438 L 1.4210854715202e-14 -59.00039291381836 C 1.4210854715202e-14 -61.76160049438477 2.23829174041748 -63.99989318847656 5.000395774841309 -63.99989318847656 L 54.99989700317383 -63.99989318847656 C 57.76110458374023 -63.99989318847656 60.00028991699219 -61.76160049438477 60.00028991699219 -59.00039291381836 L 60.00028991699219 -48.99960327148438 C 60.00028991699219 -46.23839569091797 57.76110458374023 -44.00010299682617 54.99989700317383 -44.00010299682617 Z" stroke="none"/>
      </g>
    </g>
    <g id="Union_1-5" data-name="Union 1" transform="translate(10.5 74.5)" fill="none">
      <path d="M5-4A5,5,0,0,1,0-9V-19a5,5,0,0,1,5-5H55a5,5,0,0,1,5,5V-9a5,5,0,0,1-5,5Zm55-9.5v-1H80.5V-53H60v-1H81.5v19.5H102V-39a5,5,0,0,1,5-5h50a5,5,0,0,1,5,5v10a5,5,0,0,1-5,5H107a5,5,0,0,1-5-5v-4.5H81.5v20ZM5-44a5,5,0,0,1-5-5V-59a5,5,0,0,1,5-5H55a5,5,0,0,1,5,5v10a5,5,0,0,1-5,5Z" stroke="none"/>
      <path d="M 54.99989700317383 -4.999602317810059 C 57.20573043823242 -4.999602317810059 59.00028991699219 -6.794165134429932 59.00028991699219 -8.999998092651367 L 59.00028991699219 -18.99989318847656 C 59.00028991699219 -21.20572662353516 57.20573043823242 -23.00031089782715 54.99989700317383 -23.00031089782715 L 5.000395774841309 -23.00031089782715 C 2.794562578201294 -23.00031089782715 1 -21.20572662353516 1 -18.99989318847656 L 1 -8.999998092651367 C 1 -6.794165134429932 2.794562578201294 -4.999602317810059 5.000395774841309 -4.999602317810059 L 54.99989700317383 -4.999602317810059 M 156.9996032714844 -25.00031089782715 C 159.2054443359375 -25.00031089782715 161 -26.79447746276855 161 -28.99981117248535 L 161 -38.99970626831055 C 161 -41.20553970336914 159.2054443359375 -43.00010299682617 156.9996032714844 -43.00010299682617 L 107.0001068115234 -43.00010299682617 C 104.7942733764648 -43.00010299682617 102.9997100830078 -41.20553970336914 102.9997100830078 -38.99970626831055 L 102.9997100830078 -28.99981117248535 C 102.9997100830078 -26.79447746276855 104.7942733764648 -25.00031089782715 107.0001068115234 -25.00031089782715 L 156.9996032714844 -25.00031089782715 M 54.99989700317383 -45.00010299682617 C 57.20573043823242 -45.00010299682617 59.00028991699219 -46.79426956176758 59.00028991699219 -48.99960327148438 L 59.00028991699219 -59.00039291381836 C 59.00028991699219 -61.20572662353516 57.20573043823242 -62.99989318847656 54.99989700317383 -62.99989318847656 L 5.000395774841309 -62.99989318847656 C 2.794562578201294 -62.99989318847656 1 -61.20572662353516 1 -59.00039291381836 L 1 -48.99960327148438 C 1 -46.79426956176758 2.794562578201294 -45.00010299682617 5.000395774841309 -45.00010299682617 L 54.99989700317383 -45.00010299682617 M 54.99989700317383 -3.999602317810059 L 5.000395774841309 -3.999602317810059 C 2.23829174041748 -3.999602317810059 1.4210854715202e-14 -6.238790035247803 1.4210854715202e-14 -8.999998092651367 L 1.4210854715202e-14 -18.99989318847656 C 1.4210854715202e-14 -21.7611026763916 2.23829174041748 -24.00031089782715 5.000395774841309 -24.00031089782715 L 54.99989700317383 -24.00031089782715 C 57.76110458374023 -24.00031089782715 60.00028991699219 -21.7611026763916 60.00028991699219 -18.99989318847656 L 60.00028991699219 -8.999998092651367 C 60.00028991699219 -6.238790035247803 57.76110458374023 -3.999602317810059 54.99989700317383 -3.999602317810059 Z M 81.49949645996094 -13.49999809265137 L 60.00028991699219 -13.49999809265137 L 60.00028991699219 -14.49989414215088 L 80.49960327148438 -14.49989414215088 L 80.49960327148438 -53.00010299682617 L 60.00028991699219 -53.00010299682617 L 60.00028991699219 -54 L 81.50039672851562 -54 L 81.49949645996094 -34.49970626831055 L 101.9997100830078 -34.49970626831055 L 101.9997100830078 -38.99970626831055 C 101.9997100830078 -41.76181030273438 104.238899230957 -44.00010299682617 107.0001068115234 -44.00010299682617 L 156.9996032714844 -44.00010299682617 C 159.7617034912109 -44.00010299682617 162 -41.76181030273438 162 -38.99970626831055 L 162 -28.99981117248535 C 162 -26.23860168457031 159.7617034912109 -24.00031089782715 156.9996032714844 -24.00031089782715 L 107.0001068115234 -24.00031089782715 C 104.238899230957 -24.00031089782715 101.9997100830078 -26.23860168457031 101.9997100830078 -28.99981117248535 L 101.9997100830078 -33.49980926513672 L 81.49949645996094 -33.49980926513672 L 81.49949645996094 -13.49999809265137 Z M 54.99989700317383 -44.00010299682617 L 5.000395774841309 -44.00010299682617 C 2.23829174041748 -44.00010299682617 1.4210854715202e-14 -46.23839569091797 1.4210854715202e-14 -48.99960327148438 L 1.4210854715202e-14 -59.00039291381836 C 1.4210854715202e-14 -61.76160049438477 2.23829174041748 -63.99989318847656 5.000395774841309 -63.99989318847656 L 54.99989700317383 -63.99989318847656 C 57.76110458374023 -63.99989318847656 60.00028991699219 -61.76160049438477 60.00028991699219 -59.00039291381836 L 60.00028991699219 -48.99960327148438 C 60.00028991699219 -46.23839569091797 57.76110458374023 -44.00010299682617 54.99989700317383 -44.00010299682617 Z" stroke="none" fill="#03d5fb"/>
    </g>
  </g>  single_elim
</svg>
