<?xml version="1.0" encoding="UTF-8"?>
<svg id="Layer_1" data-name="Layer 1" xmlns="http://www.w3.org/2000/svg" viewBox="0 0 1197.19 385.04">
  <defs>
    <style>
      .cls-1 {
        fill: #ff7400;
      }

      .cls-1, .cls-2 {
        stroke-width: 0px;
      }

      .cls-2 {
        fill: #fff;
      }
    </style>
  </defs>
  <path class="cls-2" d="m1135.26,150.71l-763.21-.55,33.51-114.84-126.75,66.73-43.75-10.96-43.7,11L64.63,35.36l41.85,143.44-48.79,62.99,43.95.05-4.97,14.44,138.4,102.47,110.66-81.98c24.18,0,93.05-.04,93.05-.04l15.11-72.37,19.67,25.46-9.81,46.92h56.97l5.03-24.2,14.9,24.2h67.34,0s26.47,0,26.47,0h2.07s84.81,0,84.81,0c9.91,0,18.82-3.58,25.8-10.35l-2.17,10.35h100.78v.04s132.63,0,132.63,0c13.77,0,26.23-7.39,33.1-18.71,2.23-3.67,3.87-7.74,4.78-12.11l-.7,13.9-3.53,16.93h84.37c18.23,0,34.16-12.95,37.88-30.82l18.61-95.25h-17.64Z"/>
  <path class="cls-1" d="m256.62,285.51l-21.46-6.02-.09-179.18-44.84,11.29-111.09-58.49,37.22,127.56-40.42,52.18,38.25.05-6.92,20.09,127.79,94.62v-45.99l21.55-16.12ZM104.36,83.75l81.54,43.43-57.69-10.35,4.61,65.69-28.47-98.76Zm107.94,164.68l-11.25-25.5-43.85-44.56,55.1,35.15v34.91Zm383.66,11.31l15.58-74.59-17.07-22.1h48l-20.21,96.68h-26.31Zm160.24-74.65c1.27-6.17.24-11.38-3.1-15.65-3.35-4.24-8.1-6.38-14.28-6.38h-87.17l18.07,23.38h58.17c1.17,0,1.62.59,1.31,1.76l-9.69,46.45c-.21,1.17-.86,1.76-2.03,1.76h-31.28l7.27-34.79h-26.31l-12.17,58.13h66.34c6.17,0,11.38-2.14,15.62-6.38s7.04-9.48,8.38-15.65l10.86-52.62h0Zm48.86,1.35h54.24l4.9-23.38h-104.41l18.07,23.38h27.2Zm43.82,49.96h-54.24l3.17-15.17h48.21l4.1-19.62h-74.51l-12.17,58.13h80.58l4.86-23.35h0Zm-484.08-13.69c1.35-6.17.35-11.38-3.03-15.65-3.38-4.24-8.17-6.38-14.34-6.38h-38.14c-1.17,0-1.65-.59-1.45-1.76l2.24-10.76c.28-1.17,1-1.76,2.17-1.76h32.1c1.17,0,1.58.59,1.31,1.76l-1.1,5.52h26.31l1.76-8.59c1.27-6.17.24-11.38-3.1-15.65-3.35-4.24-8.1-6.38-14.28-6.38h-88.89l17.83,23.07-2.86,14c-1.35,6.17-.35,11.38,3.03,15.65,3.38,4.24,8.17,6.38,14.34,6.38h38.14c1.17,0,1.62.59,1.31,1.76l-2.24,10.76c-.21,1.17-.86,1.76-2.03,1.76h-32.1c-1.17,0-1.65-.59-1.45-1.76l1.24-5.52h-26.31l-1.76,8.59c-1.35,6.17-.35,11.38,3.03,15.65,3.38,4.24,8.17,6.38,14.34,6.38h47.55c6.17,0,11.28-2.14,15.28-6.38,4-4.24,6.69-9.48,8.03-15.65l3.07-15.04Zm109.62-36.27l4.9-23.38h-103.93l18.07,23.38h22.14l-15.31,73.31h26.31l15.31-73.31h32.51Zm82.72,41.62s8.24,1.07,16.9-6.52c4.65-4.07,7.24-9.51,8.55-15.52l4.34-20.97c1.28-6.1.24-11.28-3.1-15.58-3.35-4.31-8.1-6.45-14.28-6.45h-85.07l27.52,32.48h30.72l-7.58-9.1h23.52c1.17,0,1.58.59,1.31,1.76l-3.28,15.86c-.21,1.17-.86,1.76-2.03,1.76h-79.17l14.17,18.35-7.45,35.62h26.31l6.59-31.69h14.41l19.52,31.69h30.21l-22.1-31.69h0Zm311.94,8.28l-4.89,23.45h27l4.89-23.45h-27,0Zm148.16-72.63h-108.1l17.95,23.23h.55l-15.18,72.84h65.92c11.22,0,20.9-7.87,23.19-18.86l8.12-39.31h-51.22l14.08,17.97h7.19l-3.18,15.25c-.21,1.16-.86,1.75-2.02,1.75h-31.08l10.34-49.65h58.94l4.49-23.23h0Zm118.03,0h-108.1l17.95,23.23h.55l-15.18,72.84h65.92c11.22,0,20.9-7.87,23.19-18.86l8.12-39.31h-51.22l14.08,17.97h7.19l-3.18,15.25c-.21,1.16-.86,1.75-2.02,1.75h-31.08l10.34-49.65h58.94l4.49-23.23h0Zm-749.14-21.53L423.81,12.98l-146.43,77.09-42.32-10.6-42.26,10.64L46.38,13.02l47.68,163.42-59.32,76.58,51.12.06-2.53,7.34,151.74,112.35,118.77-88h742.55c22,0,41.22-15.64,45.72-37.21l7.36-35.64h.27l13.08-69.23-776.72-.53Zm748.17,103.78c-3.73,17.87-19.66,30.82-37.88,30.82h-84.37l3.53-16.93.7-13.9c-.91,4.37-2.55,8.45-4.78,12.11-6.88,11.32-19.34,18.71-33.1,18.71h-132.64v-.04s-100.77,0-100.77,0l2.17-10.35c-6.99,6.77-15.89,10.35-25.8,10.35h-86.88s-26.47,0-26.47,0h0s-67.34,0-67.34,0l-14.9-24.2-5.03,24.2h-56.97l9.81-46.92-19.67-25.46-15.11,72.37s-68.87.03-93.05.04l-110.66,81.98-138.4-102.47,4.97-14.44-43.95-.05,48.79-62.99L64.63,35.36l126.74,66.72,43.7-11,43.75,10.96,126.75-66.73-33.51,114.84,763.21.55h17.64l-18.61,95.25Z"/>
</svg>