<svg width="800" height="800" viewBox="0 0 800 800" fill="none" xmlns="http://www.w3.org/2000/svg">
<path d="M211.272 494.815C215.179 462.467 228.446 444.357 253.446 425.792C289.218 400.647 333.901 414.87 333.901 414.87V330.492C344.766 330.212 355.633 330.857 366.376 332.415V441.002C366.376 441.002 321.706 426.78 285.936 451.937C260.948 470.49 247.654 488.615 243.761 520.962C243.639 538.527 246.935 561.487 262.116 581.34C258.361 579.415 254.536 577.222 250.638 574.762C217.2 552.307 211.109 518.622 211.272 494.815ZM550.878 174.474C526.271 147.51 516.963 120.285 513.601 101.16H544.556C544.556 101.16 538.383 151.306 583.366 200.62L583.991 201.283C571.866 193.657 560.748 184.656 550.878 174.474ZM699.998 250.922V357.325C699.998 357.325 660.498 355.78 631.266 348.342C590.446 337.94 564.211 321.987 564.211 321.987C564.211 321.987 546.088 310.612 544.623 309.82V529.542C544.623 541.777 541.273 572.33 531.058 597.812C517.723 631.15 497.146 653.03 493.361 657.502C493.361 657.502 468.333 687.08 424.178 707C384.378 724.967 349.433 724.512 338.988 724.967C338.988 724.967 278.583 727.36 224.227 692.035C212.473 684.247 201.501 675.43 191.453 665.692L191.725 665.887C246.094 701.212 306.486 698.82 306.486 698.82C316.946 698.365 351.888 698.82 391.676 680.852C435.791 660.935 460.858 631.357 460.858 631.357C464.603 626.885 485.276 605.002 498.556 571.655C508.743 546.185 512.121 515.617 512.121 503.385V283.687C513.586 284.492 531.696 295.867 531.696 295.867C531.696 295.867 557.946 311.835 598.763 322.222C628.008 329.66 667.498 331.207 667.498 331.207V247.828C681.008 250.857 692.526 251.677 699.998 250.922Z" fill="#EE1D52"/>
<path d="M667.522 247.828V331.18C667.522 331.18 628.033 329.632 598.787 322.197C557.97 311.795 531.72 295.842 531.72 295.842C531.72 295.842 513.61 284.467 512.145 283.66V503.41C512.145 515.645 508.795 546.21 498.58 571.68C485.245 605.03 464.667 626.91 460.882 631.382C460.882 631.382 435.842 660.96 391.7 680.88C351.912 698.847 316.97 698.392 306.51 698.847C306.51 698.847 246.118 701.24 191.749 665.915L191.477 665.72C185.737 660.16 180.334 654.292 175.294 648.142C157.944 626.987 147.309 601.972 144.637 594.835V594.745C140.337 582.342 131.302 552.555 132.537 523.705C134.721 472.805 152.627 441.562 157.361 433.735C169.899 412.392 186.207 393.295 205.558 377.297C222.634 363.49 241.99 352.505 262.83 344.792C285.36 335.737 309.485 330.882 333.912 330.492V414.87C333.912 414.87 289.227 400.7 253.47 425.792C228.47 444.357 215.203 462.467 211.296 494.815C211.133 518.622 217.224 552.307 250.635 574.775C254.532 577.245 258.357 579.437 262.112 581.352C267.947 588.94 275.052 595.552 283.137 600.92C315.775 621.58 343.122 623.022 378.095 609.605C401.412 600.635 418.965 580.417 427.105 558.015C432.22 544.027 432.152 529.945 432.152 515.385V101.16H513.542C516.907 120.285 526.212 147.51 550.82 174.474C560.69 184.656 571.81 193.657 583.932 201.283C587.515 204.989 605.828 223.308 629.335 234.554C641.49 240.367 654.305 244.821 667.522 247.828Z" fill="white"/>
<path d="M112.234 568.92V568.985L114.254 574.46C114.022 573.822 113.271 571.885 112.234 568.92Z" fill="#69C9D0"/>
<path d="M262.82 344.79C241.98 352.505 222.625 363.49 205.548 377.295C186.191 393.33 169.887 412.467 157.365 433.85C152.63 441.652 134.724 472.92 132.54 523.82C131.306 552.67 140.34 582.457 144.64 594.86V594.95C147.353 602.025 157.948 627.037 175.298 648.257C180.338 654.407 185.741 660.277 191.481 665.835C173.089 653.642 156.687 638.905 142.809 622.097C125.608 601.127 115 576.372 112.233 569.065C112.23 569.012 112.23 568.96 112.233 568.91V568.817C107.919 556.427 98.8578 526.627 100.119 497.74C102.303 446.84 120.21 415.597 124.944 407.77C137.463 386.382 153.767 367.245 173.127 351.215C190.2 337.402 209.556 326.417 230.4 318.71C243.401 313.54 256.945 309.727 270.798 307.335C291.673 303.842 312.995 303.537 333.97 306.437V330.49C309.52 330.872 285.37 335.727 262.82 344.79Z" fill="#69C9D0"/>
<path d="M513.594 101.159H432.202V515.398C432.202 529.958 432.202 544 427.157 558.028C418.937 580.418 401.449 600.633 378.144 609.605C343.162 623.075 315.814 621.58 283.189 600.92C275.089 595.575 267.967 588.985 262.109 581.418C289.904 595.628 314.782 595.38 345.602 583.525C368.894 574.553 386.407 554.335 394.599 531.935C399.727 517.945 399.659 503.865 399.659 489.315V75H512.047C512.047 75 510.787 85.297 513.594 101.159ZM667.504 224.776V247.828C654.312 244.816 641.522 240.362 629.387 234.553C605.879 223.307 587.564 204.988 583.984 201.283C588.139 203.898 592.452 206.277 596.897 208.407C625.479 222.085 653.627 226.167 667.504 224.776Z" fill="#69C9D0"/>
</svg>
