<svg width="800" height="800" viewBox="0 0 800 800" fill="none" xmlns="http://www.w3.org/2000/svg">
<g clip-path="url(#clip0_1387_6402)">
<path d="M400 800C620.914 800 800 620.914 800 400C800 179.086 620.914 0 400 0C179.086 0 0 179.086 0 400C0 620.914 179.086 800 400 800Z" fill="#0070D1"/>
<path d="M189.35 465.391C172.897 476.328 178.413 497.203 213.483 507.078C250.21 519.308 289.38 522.321 327.546 515.852C329.741 515.852 331.936 514.758 333.014 514.758V477.453L295.717 489.523C281.46 493.914 267.194 494.992 252.936 491.719C241.999 488.43 244.163 481.844 257.327 476.359L333.061 450V409.375L227.749 445.578C214.013 450.183 201.063 456.865 189.35 465.391ZM443.858 300.836V407.25C488.835 429.188 523.944 407.25 523.944 350.219C523.944 292.078 503.1 265.75 442.764 244.906C410.952 233.969 378.038 224.062 345.108 217.484V534.5L421.897 557.539V290.961C421.897 278.891 421.897 270.117 430.671 273.406C442.764 276.703 443.858 288.766 443.858 300.836ZM586.475 440.156C554.663 429.219 520.655 424.797 487.741 428.086C470.186 429.18 453.733 433.555 438.374 439.023L435.085 440.117V482.898L506.389 456.57C520.647 452.18 534.913 451.102 549.171 454.375C560.108 457.664 557.944 464.25 544.78 469.734L435.077 510.359V552.047L586.475 496.094C597.413 491.703 607.319 486.219 616.092 477.445C623.772 466.484 620.483 451.125 586.475 440.156Z" fill="white"/>
</g>
<defs>
<clipPath id="clip0_1387_6402">
<rect width="800" height="800" fill="white"/>
</clipPath>
</defs>
</svg>
