<svg width="800" height="800" viewBox="0 0 800 800" fill="none" xmlns="http://www.w3.org/2000/svg">
<path d="M744.829 131.034H55.1743C28.5123 131.034 6.89844 152.648 6.89844 179.31V620.69C6.89844 647.352 28.5123 668.966 55.1743 668.966H744.829C771.491 668.966 793.105 647.352 793.105 620.69V179.31C793.105 152.648 771.491 131.034 744.829 131.034Z" fill="white" stroke="#F3F3F3" stroke-width="13.7931"/>
<path fill-rule="evenodd" clip-rule="evenodd" d="M364.674 403.534L368.157 381.348L360.398 381.167H323.352L349.098 217.449C349.178 216.953 349.437 216.493 349.816 216.166C350.197 215.838 350.681 215.659 351.189 215.659H413.658C434.397 215.659 448.709 219.986 456.181 228.528C459.684 232.535 461.914 236.724 462.994 241.331C464.127 246.167 464.146 251.944 463.041 258.992L462.961 259.504V264.021L466.465 266.011C469.414 267.581 471.758 269.377 473.557 271.432C476.553 274.859 478.491 279.215 479.31 284.377C480.157 289.686 479.877 296.006 478.491 303.159C476.892 311.386 474.309 318.553 470.819 324.417C467.609 329.819 463.521 334.302 458.665 337.774C454.03 341.074 448.523 343.579 442.296 345.182C436.261 346.757 429.382 347.552 421.836 347.552H416.974C413.499 347.552 410.123 348.808 407.472 351.058C404.814 353.356 403.056 356.495 402.517 359.927L402.15 361.926L395.996 401.03L395.717 402.465C395.643 402.92 395.516 403.146 395.33 403.299C395.164 403.44 394.925 403.534 394.691 403.534H364.674Z" fill="#28356A"/>
<path fill-rule="evenodd" clip-rule="evenodd" d="M469.777 260.025C469.592 261.22 469.378 262.441 469.138 263.698C460.901 306.116 432.716 320.77 396.721 320.77H378.392C373.99 320.77 370.279 323.974 369.595 328.328L357.554 404.928C357.108 407.789 359.305 410.364 362.181 410.364H394.689C398.537 410.364 401.807 407.56 402.414 403.753L402.733 402.098L408.853 363.146L409.247 361.01C409.846 357.189 413.123 354.383 416.972 354.383H421.834C453.327 354.383 477.983 341.561 485.19 304.452C488.198 288.95 486.641 276.007 478.675 266.903C476.265 264.16 473.275 261.881 469.777 260.025Z" fill="#298FC2"/>
<path fill-rule="evenodd" clip-rule="evenodd" d="M461.163 256.58C459.904 256.212 458.606 255.879 457.273 255.577C455.934 255.284 454.563 255.024 453.151 254.795C448.21 253.995 442.795 253.615 436.995 253.615H388.032C386.825 253.615 385.68 253.888 384.656 254.382C382.396 255.471 380.719 257.615 380.314 260.239L369.897 326.401L369.598 328.33C370.283 323.975 373.994 320.77 378.395 320.77H396.723C432.719 320.77 460.904 306.109 469.142 263.698C469.388 262.443 469.595 261.222 469.78 260.026C467.696 258.917 465.439 257.968 463.009 257.16C462.407 256.96 461.788 256.767 461.163 256.58Z" fill="#22284F"/>
<path fill-rule="evenodd" clip-rule="evenodd" d="M380.313 260.24C380.72 257.615 382.396 255.471 384.655 254.39C385.687 253.894 386.825 253.621 388.032 253.621H436.994C442.795 253.621 448.21 254.003 453.152 254.803C454.563 255.03 455.934 255.291 457.273 255.585C458.606 255.884 459.903 256.219 461.163 256.586C461.788 256.773 462.407 256.968 463.014 257.16C465.444 257.969 467.704 258.924 469.788 260.026C472.239 244.351 469.767 233.678 461.316 224.014C451.999 213.373 435.183 208.819 413.665 208.819H351.195C346.8 208.819 343.051 212.024 342.371 216.387L316.352 381.788C315.839 385.059 318.356 388.012 321.647 388.012H360.212L380.313 260.24Z" fill="#28356A"/>
<path fill-rule="evenodd" clip-rule="evenodd" d="M180.614 448.564H135.068C131.95 448.564 129.3 450.834 128.813 453.921L110.391 571.047C110.026 573.36 111.811 575.441 114.148 575.441H135.892C139.009 575.441 141.66 573.172 142.147 570.08L147.115 538.488C147.593 535.396 150.25 533.126 153.362 533.126H167.78C197.782 533.126 215.097 518.564 219.621 489.713C221.658 477.09 219.707 467.172 213.811 460.226C207.338 452.599 195.857 448.564 180.614 448.564ZM185.868 491.343C183.377 507.732 170.89 507.732 158.817 507.732H151.942L156.764 477.123C157.051 475.273 158.649 473.91 160.515 473.91H163.665C171.89 473.91 179.649 473.91 183.657 478.612C186.049 481.417 186.78 485.585 185.868 491.343Z" fill="#28356A"/>
<path fill-rule="evenodd" clip-rule="evenodd" d="M317.927 489.93H296.116C294.258 489.93 292.651 491.292 292.366 493.142L291.4 499.259L289.876 497.043C285.155 490.17 274.624 487.872 264.116 487.872C240.012 487.872 219.428 506.179 215.418 531.859C213.334 544.669 216.297 556.919 223.544 565.461C230.19 573.314 239.701 576.588 251.015 576.588C270.436 576.588 281.203 564.065 281.203 564.065L280.232 570.143C279.866 572.466 281.651 574.55 283.975 574.55H303.621C306.745 574.55 309.382 572.28 309.876 569.188L321.664 494.324C322.036 492.019 320.257 489.93 317.927 489.93ZM287.523 532.502C285.419 544.996 275.531 553.385 262.916 553.385C256.584 553.385 251.523 551.348 248.27 547.488C245.047 543.655 243.824 538.199 244.847 532.12C246.814 519.731 256.869 511.068 269.291 511.068C275.484 511.068 280.519 513.134 283.836 517.025C287.157 520.959 288.477 526.45 287.523 532.502Z" fill="#28356A"/>
<path fill-rule="evenodd" clip-rule="evenodd" d="M432.405 491.801H410.487C408.396 491.801 406.432 492.844 405.247 494.588L375.016 539.241L362.203 496.33C361.397 493.644 358.927 491.801 356.13 491.801H334.593C331.974 491.801 330.157 494.367 330.989 496.839L355.131 567.887L332.434 600.019C330.65 602.55 332.447 606.03 335.531 606.03H357.422C359.501 606.03 361.444 605.014 362.623 603.306L435.521 497.779C437.267 495.255 435.474 491.801 432.405 491.801Z" fill="#28356A"/>
<path fill-rule="evenodd" clip-rule="evenodd" d="M505.475 448.564H459.924C456.813 448.564 454.162 450.834 453.675 453.921L435.255 571.047C434.889 573.36 436.674 575.441 438.998 575.441H462.375C464.544 575.441 466.402 573.854 466.742 571.69L471.971 538.488C472.449 535.396 475.108 533.126 478.217 533.126H492.63C522.638 533.126 539.947 518.564 544.477 489.713C546.521 477.09 544.557 467.172 538.662 460.226C532.194 452.599 520.719 448.564 505.475 448.564ZM510.731 491.343C508.246 507.732 495.758 507.732 483.678 507.732H476.813L481.641 477.123C481.926 475.273 483.511 473.91 485.383 473.91H488.533C496.751 473.91 504.517 473.91 508.525 478.612C510.917 481.417 511.642 485.585 510.731 491.343Z" fill="#298FC2"/>
<path fill-rule="evenodd" clip-rule="evenodd" d="M642.756 489.93H620.958C619.087 489.93 617.495 491.292 617.215 493.142L616.25 499.259L614.718 497.043C609.996 490.17 599.473 487.872 588.963 487.872C564.862 487.872 544.284 506.179 540.276 531.859C538.198 544.669 541.146 556.919 548.392 565.461C555.054 573.314 564.549 576.588 575.865 576.588C595.284 576.588 606.053 564.065 606.053 564.065L605.082 570.143C604.716 572.466 606.5 574.55 608.838 574.55H628.478C631.588 574.55 634.238 572.28 634.724 569.188L646.519 494.324C646.879 492.019 645.093 489.93 642.756 489.93ZM612.355 532.502C610.264 544.996 600.36 553.385 587.745 553.385C581.425 553.385 576.352 551.348 573.1 547.488C569.879 543.655 568.665 538.199 569.676 532.12C571.655 519.731 581.698 511.068 594.12 511.068C600.313 511.068 605.348 513.134 608.665 517.025C612 520.959 613.319 526.45 612.355 532.502Z" fill="#298FC2"/>
<path fill-rule="evenodd" clip-rule="evenodd" d="M666.656 451.783L647.962 571.052C647.596 573.365 649.38 575.447 651.704 575.447H670.498C673.622 575.447 676.272 573.178 676.751 570.086L695.185 452.966C695.553 450.654 693.767 448.564 691.443 448.564H670.399C668.541 448.57 666.942 449.934 666.656 451.783Z" fill="#298FC2"/>
</svg>
