<svg width="800" height="800" viewBox="0 0 800 800" fill="none" xmlns="http://www.w3.org/2000/svg">
<g clip-path="url(#clip0_1387_6428)">
<path fill-rule="evenodd" clip-rule="evenodd" d="M776.999 484.924C782.784 458.865 785.795 431.879 785.795 404.15C785.795 196.418 615.005 27.9602 404.233 27.9602C382.032 27.9602 360.254 29.861 338.993 33.4778C304.892 12.2873 264.534 0 221.307 0C99.059 0 0 97.6521 0 218.211C0 258.459 11.1008 296.11 30.3858 328.569C25.3529 352.958 22.6715 378.277 22.6715 404.15C22.6715 611.975 193.509 780.386 404.233 780.386C428.128 780.386 451.458 778.206 474.13 774.079C505.315 790.587 540.875 800 578.739 800C700.941 800 800 702.301 800 581.835C800 547.012 791.721 514.137 776.999 484.924ZM599.953 583.968C582.314 608.636 556.256 628.111 522.389 641.929C488.946 655.654 448.871 662.656 403.199 662.656C348.401 662.656 302.446 653.15 266.557 634.371C240.922 620.738 219.802 602.283 203.763 579.377C187.535 556.378 179.351 533.519 179.351 511.401C179.351 497.676 184.713 485.713 195.249 475.929C205.692 466.191 219.097 461.323 235.09 461.323C248.166 461.323 259.502 465.171 268.674 472.822C277.47 480.195 284.995 491.092 291.063 505.049C297.836 520.35 305.174 533.24 312.935 543.302C320.461 553.133 331.232 561.34 344.967 567.786C358.796 574.185 377.47 577.523 400.376 577.523C431.938 577.523 457.808 570.846 477.234 557.77C496.284 545.018 505.503 529.624 505.503 510.798C505.503 496.006 500.658 484.321 490.781 475.14C480.338 465.588 466.651 458.17 450.047 452.976C432.69 447.69 409.172 441.894 380.056 435.866C340.404 427.52 306.773 417.644 280.056 406.376C252.681 394.923 230.621 379.018 214.487 359.126C198.118 338.863 189.793 313.499 189.793 283.684C189.793 255.307 198.495 229.664 215.71 207.593C232.738 185.66 257.667 168.504 289.793 156.865C321.449 145.32 359.078 139.478 401.741 139.478C435.795 139.478 465.757 143.372 490.781 151.069C515.945 158.766 537.112 169.154 553.763 181.998C570.555 194.981 583.067 208.752 590.875 223.126C598.777 237.64 602.822 252.061 602.822 266.018C602.822 279.465 597.554 291.706 587.159 302.324C576.717 313.082 563.499 318.507 547.977 318.507C533.866 318.507 522.766 315.076 515.146 308.398C507.996 302.139 500.564 292.401 492.333 278.49C482.832 260.685 471.307 246.636 458.09 236.713C445.249 227.068 423.848 222.245 394.356 222.245C367.074 222.245 344.779 227.624 328.269 238.335C312.371 248.583 304.61 260.407 304.61 274.41C304.61 282.942 307.103 290.13 312.277 296.25C317.639 302.835 325.306 308.491 334.996 313.314C345.014 318.275 355.362 322.263 365.71 325.045C376.294 327.966 394.073 332.279 418.486 337.843C449.389 344.334 477.752 351.707 502.822 359.636C528.269 367.612 550.188 377.441 568.156 388.987C586.406 400.719 600.846 415.742 611.148 433.733C621.449 451.863 626.67 474.121 626.67 500.041C626.67 531.015 617.639 559.254 599.953 583.968Z" fill="#00AEF3"/>
</g>
<defs>
<clipPath id="clip0_1387_6428">
<rect width="800" height="800" fill="white"/>
</clipPath>
</defs>
</svg>
