<svg width="800" height="800" viewBox="0 0 800 800" fill="none" xmlns="http://www.w3.org/2000/svg">
<path d="M103.643 309.576C47.2542 309.576 0.265625 333.301 0.265625 404.879C0.265625 461.584 31.862 497.294 105.099 497.294C191.302 497.294 196.828 440.978 196.828 440.978H155.058C155.058 440.978 146.103 471.302 102.551 471.302C67.079 471.302 41.5663 447.538 41.5663 414.229H201.196V393.327C201.196 360.374 180.102 309.576 103.643 309.576ZM102.187 336.29C135.952 336.29 158.971 356.804 158.971 387.551H42.4901C42.4901 354.909 72.536 336.29 102.187 336.29Z" fill="#E53238"/>
<path d="M201.165 240.265V461.348C201.165 473.897 200.262 491.518 200.262 491.518H240.101C240.101 491.518 241.531 478.862 241.531 467.296C241.531 467.296 261.214 497.835 314.734 497.835C371.093 497.835 409.375 459.031 409.375 403.435C409.375 351.715 374.212 310.117 314.825 310.117C259.214 310.117 241.933 339.9 241.933 339.9V240.265H201.165ZM304.542 337.463C342.814 337.463 367.151 365.632 367.151 403.435C367.151 443.971 339.043 470.49 304.815 470.49C263.967 470.49 241.933 438.86 241.933 403.796C241.933 371.123 261.705 337.463 304.542 337.463Z" fill="#0064D2"/>
<path d="M508.385 309.576C423.553 309.576 418.112 355.642 418.112 363.003H460.336C460.336 363.003 462.551 336.109 505.473 336.109C533.365 336.109 554.978 348.77 554.978 373.111V381.775H505.473C439.752 381.775 405.008 400.842 405.008 439.534C405.008 477.613 437.11 498.332 480.493 498.332C539.617 498.332 558.663 465.932 558.663 465.932C558.663 478.819 559.665 491.518 559.665 491.518H597.202C597.202 491.518 595.746 475.777 595.746 465.707V378.661C595.746 321.587 549.326 309.576 508.385 309.576ZM554.978 407.767V419.319C554.978 434.385 545.603 471.844 490.412 471.844C460.19 471.844 447.232 456.885 447.232 439.534C447.232 407.97 490.869 407.767 554.978 407.767Z" fill="#F5AF02"/>
<path d="M573.012 316.8H620.505L688.678 452.253L756.705 316.8H799.732L675.838 557.947H630.705L666.452 490.72L573.012 316.8Z" fill="#86B817"/>
</svg>
