<svg width="800" height="800" viewBox="0 0 800 800" fill="none" xmlns="http://www.w3.org/2000/svg">
<path d="M64.2417 500.672C107.51 644.91 241.356 750 399.765 750C593.185 750 749.987 593.295 749.987 400C749.987 206.701 593.185 50 399.765 50C214.158 50 62.2877 194.293 50.293 376.747C50.293 429.167 50.293 451.042 64.2417 500.672Z" fill="url(#paint0_linear_1387_6425)"/>
<path d="M381.766 314.072L296.066 438.487C275.863 437.57 255.526 443.285 238.644 454.38L50.4579 376.96C50.4579 376.96 46.1034 448.552 64.2504 501.908L197.287 556.768C203.967 586.6 224.445 612.768 254.658 625.355C304.088 645.995 361.083 622.47 381.646 573.05C386.998 560.13 389.493 546.583 389.131 533.062L514.761 445.547C588.143 445.547 647.786 385.763 647.786 312.343C647.786 238.918 588.143 179.187 514.761 179.187C443.883 179.187 377.793 241.032 381.766 314.072ZM361.173 564.458C345.258 602.643 301.351 620.757 263.183 604.865C245.576 597.535 232.283 584.105 224.614 568.092L267.918 586.027C296.066 597.745 328.358 584.405 340.058 556.285C351.796 528.135 338.481 495.81 310.348 484.093L265.583 465.555C282.856 459.008 302.493 458.767 320.841 466.397C339.336 474.087 353.688 488.57 361.293 507.075C368.901 525.583 368.871 546.01 361.173 564.458ZM514.761 401.085C465.911 401.085 426.138 361.278 426.138 312.343C426.138 263.448 465.911 223.63 514.761 223.63C563.643 223.63 603.413 263.448 603.413 312.343C603.413 361.278 563.643 401.085 514.761 401.085ZM448.353 312.208C448.353 275.398 478.176 245.54 514.911 245.54C551.678 245.54 581.498 275.398 581.498 312.208C581.498 349.023 551.678 378.853 514.911 378.853C478.176 378.853 448.353 349.023 448.353 312.208Z" fill="white"/>
<defs>
<linearGradient id="paint0_linear_1387_6425" x1="400.14" y1="50" x2="400.14" y2="750" gradientUnits="userSpaceOnUse">
<stop stop-color="#111D2E"/>
<stop offset="0.21248" stop-color="#051839"/>
<stop offset="0.40695" stop-color="#0A1B48"/>
<stop offset="0.5811" stop-color="#132E62"/>
<stop offset="0.7376" stop-color="#144B7E"/>
<stop offset="0.87279" stop-color="#136497"/>
<stop offset="1" stop-color="#1387B8"/>
</linearGradient>
</defs>
</svg>
