<svg width="800" height="800" viewBox="0 0 800 800" fill="none" xmlns="http://www.w3.org/2000/svg">
<path opacity="0.852" d="M400 750C593.3 750 750 593.3 750 400C750 206.7 593.3 50 400 50C206.7 50 50 206.7 50 400C50 593.3 206.7 750 400 750Z" fill="url(#paint0_radial_1387_6405)"/>
<path d="M168.785 663.332C168.308 662.982 167.818 662.54 167.329 662.002C158.269 653.76 143.512 640.76 128.091 621.11C114.773 592.222 122.323 543.7 155.097 475.187C201.34 378.522 275.328 280.377 305.663 245.562C297.033 235.933 270.298 209.563 232.416 181.119C194.533 152.675 166.935 149.762 157.317 151.49C166.196 141.861 186.912 123.713 204.3 111.491C258.163 84.8247 357.703 129.886 400.371 155.564V332.227C291.606 415.93 190.982 545.187 170.635 595.555C155.105 634 161.245 655.32 167.329 662.002C167.832 662.46 168.318 662.902 168.785 663.332Z" fill="url(#paint1_linear_1387_6405)"/>
<path d="M168.785 663.327C168.308 662.977 167.818 662.535 167.329 661.997C158.269 653.755 143.512 640.755 128.091 621.105C114.773 592.217 122.323 543.692 155.097 475.182C208.784 362.957 305.663 245.557 305.663 245.557C305.663 245.557 322.963 288.512 362.221 362.957C261.111 452.585 190.982 545.18 170.635 595.55C155.105 633.995 161.244 655.315 167.329 661.997C167.832 662.455 168.318 662.897 168.785 663.327Z" fill="url(#paint2_linear_1387_6405)"/>
<path d="M631.948 663.332C632.426 662.982 632.916 662.54 633.406 662.002C642.466 653.76 657.221 640.76 672.643 621.11C685.961 592.222 678.411 543.7 645.636 475.187C599.393 378.522 525.406 280.377 495.071 245.562C503.701 235.933 530.436 209.563 568.318 181.119C606.201 152.675 633.798 149.762 643.418 151.49C634.538 141.861 613.821 123.713 596.433 111.491C542.571 84.8247 443.031 129.886 400.363 155.564V332.227C509.128 415.93 609.753 545.187 630.098 595.555C645.628 634 639.491 655.32 633.406 662.002C632.901 662.46 632.416 662.902 631.948 663.332Z" fill="url(#paint3_linear_1387_6405)"/>
<path d="M631.947 663.327C632.424 662.977 632.914 662.535 633.404 661.997C642.464 653.755 657.219 640.755 672.642 621.105C685.959 592.217 678.409 543.692 645.634 475.182C591.949 362.957 495.069 245.557 495.069 245.557C495.069 245.557 477.769 288.512 438.512 362.957C539.622 452.585 609.752 545.18 630.097 595.55C645.627 633.995 639.489 655.315 633.404 661.997C632.902 662.455 632.414 662.897 631.947 663.327Z" fill="url(#paint4_linear_1387_6405)"/>
<defs>
<radialGradient id="paint0_radial_1387_6405" cx="0" cy="0" r="1" gradientUnits="userSpaceOnUse" gradientTransform="translate(400 362.5) rotate(90.0548) scale(387.5)">
<stop stop-color="#FAFAFA"/>
<stop offset="0.499976" stop-color="#EFEFEF"/>
<stop offset="0.828794" stop-color="#C0BEC0"/>
<stop offset="1" stop-color="#879288"/>
</radialGradient>
<linearGradient id="paint1_linear_1387_6405" x1="324.813" y1="118.147" x2="330.741" y2="319.63" gradientUnits="userSpaceOnUse">
<stop stop-color="#008B00"/>
<stop offset="1" stop-color="#6CC329"/>
</linearGradient>
<linearGradient id="paint2_linear_1387_6405" x1="253.703" y1="316.667" x2="321.851" y2="410" gradientUnits="userSpaceOnUse">
<stop stop-color="#008C00"/>
<stop offset="1" stop-color="#48BF21"/>
</linearGradient>
<linearGradient id="paint3_linear_1387_6405" x1="475.921" y1="118.147" x2="469.993" y2="319.63" gradientUnits="userSpaceOnUse">
<stop stop-color="#008B00"/>
<stop offset="1" stop-color="#6CC329"/>
</linearGradient>
<linearGradient id="paint4_linear_1387_6405" x1="547.029" y1="316.667" x2="478.882" y2="410" gradientUnits="userSpaceOnUse">
<stop stop-color="#008C00"/>
<stop offset="1" stop-color="#48BF21"/>
</linearGradient>
</defs>
</svg>
