<svg width="800" height="800" viewBox="0 0 800 800" fill="none" xmlns="http://www.w3.org/2000/svg">
<g clip-path="url(#clip0_1387_6463)">
<path d="M117.977 0C72.1516 0 55.3516 16.925 55.3516 62.625V614.7C55.3516 619.925 55.6266 624.725 56.0266 629.175C57.2016 639.2 57.2016 648.975 66.5516 659.9C67.4516 661.2 76.8516 668.1 76.8516 668.1C81.9266 670.575 85.4266 672.4 91.1516 674.725L369.027 791.125C383.352 797.65 389.502 800.4 399.902 800H400.027C410.552 800.4 416.702 797.675 431.027 791.125L708.752 674.725C714.627 672.4 717.977 670.55 723.177 668.1C723.177 668.1 732.577 660.925 733.477 659.9C742.852 648.975 742.852 639.2 744.002 629.175C744.402 624.75 744.677 619.95 744.677 614.85V62.65C744.677 16.95 727.752 0.025 682.052 0.025L117.977 0ZM563.177 103.625H585.802C623.577 103.625 642.077 122 642.077 160.3V222.925H596.252V162.75C596.252 150.525 590.652 144.925 578.777 144.925H570.977C558.752 144.925 553.152 150.525 553.152 162.75V356.475C553.152 368.7 558.752 374.3 570.977 374.3H579.702C591.402 374.3 597.002 368.7 597.002 356.475V287.2H642.827V358.7C642.827 396.825 624.102 415.6 586.202 415.6H563.177C525.152 415.6 506.502 396.7 506.502 358.7V160.625C506.502 122.5 525.127 103.625 563.177 103.625ZM156.902 106.275H260.677V148.85H203.502V235.55H258.602V278.025H203.502V370.45H261.477V413.05H156.902V106.275ZM284.102 106.275H357.302C395.177 106.275 413.927 125.15 413.927 163.275V244.8C413.927 282.925 395.152 301.7 357.302 301.7H330.877V413.025H284.102V106.275ZM435.027 106.275H481.627V413.05H435.027V106.275ZM330.727 147.525V260.525H350.002C361.727 260.525 367.327 254.825 367.327 242.55V165.475C367.327 153.25 361.727 147.5 350.002 147.5L330.727 147.525ZM202.202 485.925H209.102L210.677 486.2H213.177L214.477 486.6H215.777L216.952 486.975L218.252 487.25L219.277 487.525L221.602 488.05L222.927 488.425L223.827 488.7L224.852 489.1L226.152 489.5L227.052 489.875L228.377 490.4L229.552 490.925L230.577 491.55L231.752 492.075L232.652 492.7L233.977 493.375L235.002 494L236.027 494.525L237.052 495.3L238.127 495.975L239.027 496.75L242.152 499.125L241.352 500.15L240.452 501.05L239.652 501.975L238.752 503L238.127 503.9L237.327 504.825L236.427 505.725L235.627 506.75L235.002 507.65L234.077 508.725L233.302 509.625L232.402 510.65L231.602 511.575L230.977 512.6L230.052 513.5L229.277 514.575L228.377 515.475L227.577 516.375L226.677 515.75L225.652 514.825L224.577 514.2L222.652 512.9L221.477 512.225L220.402 511.6L219.227 510.925L218.327 510.4L217.302 509.9L215.202 509.1L213.902 508.875L212.877 508.6L211.702 508.325L210.377 508.05L209.077 507.925H207.777L206.252 507.65H203.752L202.452 507.775H201.152L199.852 508.175L198.827 508.45L197.652 508.85L196.477 509.075L195.402 509.6L194.102 510.125L192.302 511.425L191.227 512.05L190.327 512.85L189.427 513.475L188.502 514.275L187.877 515.175L186.802 516.075L185.502 517.9L184.877 518.925L184.352 520.1L183.727 521.025L183.052 522.2L182.652 523.375L182.152 524.4L181.752 525.7L181.627 527L181.252 528.2L180.977 529.5V530.8L180.852 532.1V535.1L180.977 536.4V537.425L181.102 538.725L181.327 539.9L181.727 540.925L181.852 542.25L182.252 543.275L182.627 544.175L183.152 545.475L183.827 546.775L184.327 547.7L185.627 549.775L186.427 550.8L187.052 551.725L188.127 552.5L188.752 553.4L189.652 554.2L191.752 555.775L192.652 556.275L193.677 556.95L194.877 557.475L196.177 557.975L197.077 558.5L199.677 559.275L200.852 559.4L202.152 559.8L203.452 559.925H209.052L210.627 559.8H211.802L213.127 559.275L214.427 559.15L215.727 558.775L216.752 558.5L217.927 557.975L218.952 557.475L220.127 556.95L220.927 556.425L221.952 555.8V544.2H203.577V525.6H245.102V567.275L244.202 567.9L243.302 568.675L242.377 569.35L241.352 570.125L240.327 570.65L239.427 571.45L237.327 572.75L236.027 573.375L233.952 574.675L232.627 575.2L231.602 575.7L230.427 576.225L227.827 577.25L226.802 577.775L224.427 578.55L223.252 578.825L222.077 579.225L220.777 579.625L219.752 579.85L215.852 580.65L214.652 580.775L212.052 581.05L210.627 581.175L209.327 581.275L207.902 581.4H201.402L200.102 581.175H198.802L197.502 580.9H196.327L195.027 580.5L191.227 579.725L190.202 579.325L189.027 579.2L187.727 578.675L185.352 577.9L183.027 576.875L181.727 576.35L180.827 575.825L179.527 575.325L178.602 574.525L177.302 574.025L176.527 573.35L175.502 572.725L173.402 571.15L172.377 570.475L171.577 569.7L170.552 568.9L168.852 567.225L167.952 566.425L167.177 565.525L166.252 564.6L165.627 563.575L164.827 562.8L164.202 561.725L163.402 560.7L162.777 559.8L162.102 558.775L161.477 557.575L160.952 556.55L160.427 555.375L159.927 554.35L158.902 551.975L158.502 551.075L157.977 549.9L157.702 548.725L157.477 547.7L157.202 546.4L156.802 545.2L156.527 543.9L156.402 542.875L156.177 541.575L155.902 539.25L155.627 536.65V529.75L155.902 528.425V527.125L156.302 525.825V524.525L156.677 523.35L157.077 522.05L157.602 519.725L157.977 518.425L158.377 517.25L159.952 513.725L160.452 512.7L160.977 511.525L161.652 510.325L162.152 509.3L162.827 508.4L164.127 506.3L164.902 505.275L165.702 504.375L166.327 503.35L168.027 501.65L168.802 500.725L169.727 499.825L170.502 498.925L171.577 498.125L173.377 496.55L174.402 495.775L175.477 495.1L176.377 494.325L177.402 493.65L178.477 493.15L179.652 492.475L180.952 491.85L181.852 491.175L183.152 490.675L184.327 490.15L185.502 489.525L186.577 489.25L187.877 488.85L188.902 488.325L190.077 488.1L191.252 487.7L192.552 487.425L193.627 487.025L194.927 486.75H196.227L197.402 486.375H198.702L200.002 486.1H201.177L202.202 485.925ZM601.827 486.2H608.727L610.302 486.475H612.777L614.077 486.85H615.502L616.802 487.25L619.127 487.775L620.427 488.05L621.602 488.275L622.927 488.675L624.102 489.075L625.127 489.35L626.302 489.725L627.602 490.125L628.627 490.65L629.927 491.15L631.127 491.675L632.302 492.35L633.202 492.85L634.377 493.525L635.552 494.025L636.627 494.7L637.802 495.475L638.702 496.15L640.802 497.725L641.827 498.35L641.027 499.375L640.402 500.45L639.627 501.35L638.827 502.375L638.202 503.55L637.527 504.625L636.752 505.525L635.952 506.55L635.327 507.625L634.527 508.65L633.902 509.55L633.102 510.575L632.477 511.775L631.677 512.8L630.902 513.7L630.102 514.725L629.477 515.8L628.452 515L627.252 514.375L626.352 513.7L625.327 513.075L624.152 512.55L623.077 511.875L621.902 511.375L621.002 510.85L619.702 510.35L618.777 509.825L617.752 509.425L615.427 508.65L612.827 507.85L608.927 507.075L607.627 506.95L605.252 506.675H602.527L601.102 506.95L599.802 507.225L598.627 507.5L597.602 508L596.677 508.525L595.652 509.425L594.877 510.6L594.352 511.8V514.9L595.027 516.325L595.527 517.125L596.327 517.9L597.627 518.575L598.652 519.2L599.827 519.725L601.127 520.225L602.827 520.625L603.727 521.025L604.802 521.3L606.102 521.575L607.127 521.95L608.302 522.225L609.727 522.625L611.027 523.025L612.452 523.4L613.877 523.675L615.052 524.075L616.477 524.45L617.777 524.725L618.952 525L622.877 526.175L623.902 526.575L625.202 526.975L626.377 527.475L627.677 528.15L630.277 529.175L631.452 529.85L633.552 531.15L635.477 532.575L636.677 533.35L637.577 534.25L638.477 535.325L639.402 536.225L640.027 537.125L640.952 538.425L641.577 539.35L642.102 540.65L642.602 541.425L643.002 542.725L643.402 543.8L643.677 544.975L644.177 547.575L644.302 548.875L644.427 550.05V553.175L644.302 554.6L644.027 557.2L643.752 558.5L643.377 559.675L643.102 560.975L642.702 562.275L642.327 563.45L641.802 564.375L641.277 565.55L640.652 566.575L639.852 567.5L638.552 569.575L636.977 571.4L636.077 572.025L635.052 572.95L634.252 573.725L633.227 574.5L632.202 575.025L631.177 575.825L629.977 576.45L627.652 577.625L626.352 578.15L625.177 578.65L623.877 579.05L622.702 579.45L621.627 579.725L619.027 580.225L618.127 580.5L616.827 580.775H615.527L614.352 581.05H613.052L611.752 581.325H602.477L598.577 580.925L597.277 580.65L596.102 580.525L593.502 580.025L592.077 579.75L590.902 579.475L589.602 579.075L588.277 578.8L587.102 578.425L585.802 578.025L584.502 577.5L583.477 577.125L582.177 576.725L580.877 576.2L579.952 575.7L578.652 575.3L577.627 574.625L576.327 574.125L575.302 573.45L574.377 572.825L573.077 572.15L572.177 571.65L571.152 570.85L570.127 570.225L569.052 569.425L568.152 568.65L567.127 567.85L566.202 567.225L565.177 566.3L565.977 565.275L566.877 564.375L567.652 563.45L568.577 562.425L569.202 561.525L570.002 560.5L570.902 559.575L571.677 558.675L572.602 557.65L573.227 556.725L574.152 555.825L574.927 554.8L575.727 553.875L576.627 552.85L577.252 551.95L578.177 551.025L579.077 550L579.977 550.8L581.177 551.575L582.077 552.35L583.377 553.025L584.277 553.7L585.452 554.475L586.527 555.15L587.702 555.65L588.602 556.325L589.777 556.7L591.077 557.225L592.152 557.75L593.327 558.125L594.352 558.65L595.652 559.05L596.827 559.425L598.127 559.825L599.427 559.95L600.627 560.35L601.927 560.475H603.352L604.527 560.85H611.552L612.727 560.625L614.027 560.35L614.927 560.225L616.002 559.825L616.902 559.325L618.077 558.525L618.752 557.625L619.252 556.6L619.652 555.4V552.4L619.127 551.225L618.502 550.2L617.702 549.425L616.527 548.625L615.627 548.25L614.452 547.725L613.152 547.2L611.727 546.575L610.802 546.3L609.777 546.025L608.477 545.625L607.577 545.4L606.277 545L604.977 544.875L603.652 544.35L602.352 544.225L600.927 543.85L599.752 543.575L598.452 543.175L597.152 542.9L595.852 542.525L594.677 542.125L593.377 541.85L592.352 541.45L589.977 540.675L588.677 540.15L587.377 539.775L584.777 538.7L583.602 538.075L582.302 537.4L581.402 536.775L580.202 536.1L579.302 535.475L578.127 534.8L576.427 533.1L575.527 532.325L573.952 530.5L573.277 529.6L572.777 528.7L571.977 527.5L571.602 526.6L570.402 523.475L570.177 522.175L569.902 521V519.825L569.627 518.525V513.2L569.902 510.6L570.177 509.525L570.402 508.35L570.802 507.325L571.077 506.025L571.602 505.125L572.102 503.8L572.627 502.775L573.127 501.475L573.802 500.575L574.702 499.55L575.377 498.475L576.402 497.575L577.177 496.675L577.977 495.6L579.152 494.7L579.952 494.025L580.977 493.25L583.052 491.95L584.227 491.275L586.602 490.1L587.627 489.725L588.802 489.325L590.102 488.8L591.402 488.425L592.327 488.15L593.502 487.875L594.527 487.6L595.702 487.325L597.002 487.05L599.602 486.825L600.802 486.7L601.827 486.2ZM293.877 487.1H317.452L318.527 489.475L319.027 490.5L319.427 491.8L319.952 492.975L320.327 494L321.002 495.175L321.777 497.55L322.452 498.725L323.477 501.05L323.752 502.075L325.827 506.775L326.227 507.95L326.752 509.025L327.377 510.2L327.652 511.375L328.327 512.675L328.552 513.85L329.752 516.175L330.252 517.1L330.777 518.4L331.177 519.7L331.552 520.6L332.227 521.9L332.627 522.975L333.127 524.275L333.527 525.175L334.052 526.475L335.227 528.8L335.602 529.975L335.877 531.175L336.402 532.35L337.027 533.375L337.552 534.675L338.077 535.85L338.452 536.875L339.527 539.25L339.902 540.425L340.427 541.6L340.827 542.775L341.327 543.8L342.002 545L342.502 546.175L343.027 547.2L343.302 548.5L344.327 550.825L344.852 551.9L345.227 553.075L346.302 555.4L346.927 556.7L347.202 557.725L347.877 559.05L348.102 559.95L348.627 561.25L349.302 562.55L349.802 563.45L350.202 564.75L350.727 565.825L351.102 567.125L351.777 568.025L352.552 570.625L353.077 571.55L353.577 572.85L354.252 573.875L354.777 575.175L355.002 576.35L355.402 577.375L355.927 578.55L356.552 579.625H330.527L329.902 578.55L329.502 577.375L328.977 576.2L328.477 574.9L328.202 573.875L327.127 571.55L326.752 570.475L325.727 568.15L325.327 567.125L324.802 565.825L324.027 563.45L323.502 562.425H287.302L286.802 563.6L286.402 564.675L285.877 565.975L285.377 567.15L285.102 568.175L284.577 569.475L284.077 570.5L283.677 571.675L283.152 572.75L282.652 574.05L282.252 574.95L281.727 576.25L281.352 577.55L280.827 578.475L280.427 579.775H254.652L255.027 578.575L256.102 576.25L256.477 574.95L256.877 573.925L257.552 572.75L258.052 571.575L258.577 570.5L258.852 569.325L259.352 568.025L260.027 567L260.527 565.825L261.327 563.45L262.502 561.125L262.902 559.95L263.402 558.925L263.802 557.725L265.377 554.225L265.902 552.925L266.277 551.9L266.677 550.725L267.352 549.65L267.852 548.35L268.252 547.175L268.652 546.15L269.152 544.85L269.827 543.925L270.227 542.625L270.727 541.6L271.127 540.425L271.652 539.125L272.277 538.1L272.677 536.8L273.177 535.875L273.577 534.575L274.102 533.275L274.602 532.375L275.127 531.075L275.527 530L276.027 528.7L276.427 527.8L277.102 526.5L277.602 525.2L278.127 524.175L278.402 523L278.902 521.8L279.577 520.625L280.077 519.6L280.352 518.3L280.877 517.125L281.402 516.05L282.427 513.725L282.802 512.7L283.877 510.1L284.377 509.175L284.902 507.875L285.302 506.85L285.677 505.55L286.202 504.375L286.877 503.35L287.377 502.05L287.777 501.125L288.177 499.825L288.677 498.8L289.352 497.625L289.752 496.325L290.127 495.25L290.652 493.95L291.152 493.05L291.827 491.75L292.227 490.45L292.602 489.55L293.127 488.25L293.877 487.1ZM367.077 487.775H392.852L393.652 488.8L394.952 490.9L395.577 492.075L396.252 492.975L396.877 494.15L397.552 495.175L398.177 496.375L398.852 497.4L399.477 498.3L400.152 499.475L400.777 500.55L401.702 501.575L402.077 502.6L402.877 503.775L403.502 504.85L404.302 505.75L404.827 506.925L405.452 507.95L406.252 509.025L406.627 510.05L407.552 511.225L409.477 514.35L410.002 515.375L410.777 516.4L411.452 517.425L412.077 518.625L414.052 521.725L414.677 522.925L415.352 523.95L416.127 522.925L416.652 521.6L417.427 520.7L418.102 519.525L418.727 518.625L419.252 517.325L420.152 516.4L420.827 515.225L421.352 514.325L421.977 513.25L422.777 512.075L423.402 511.175L424.077 509.875L424.702 508.975L425.502 507.775L426.002 506.875L426.677 505.575L427.302 504.8L427.977 503.725L428.752 502.425L429.427 501.525L429.927 500.35L430.727 499.425L431.352 498.125L432.027 497.35L432.802 496.325L433.477 495.025L434.102 494.1L434.777 492.925L435.402 492.025L436.077 490.725L436.852 489.8L437.377 488.625L438.052 487.725H464.227V580.7H439.727V526L439.102 526.925L438.302 528.225L437.677 529L436.877 530.025L436.377 531.325L435.577 532.25L434.952 533.15L434.152 534.45L432.852 536.275L432.077 537.3L431.402 538.6L430.627 539.525L429.952 540.425L429.452 541.725L428.652 542.625L428.027 543.55L427.227 544.85L426.602 545.75L425.802 546.775L425.177 547.95L424.652 548.875L423.877 549.9L423.202 551.075L422.427 551.975L421.627 553.05L421.127 554.075L420.452 555.25L419.677 556.175L418.877 557.2L418.377 558.5L417.452 559.275L416.952 560.3L416.152 561.625L415.527 562.525H415.002L414.227 561.35L413.552 560.275L412.927 559.1L412.252 558.2L411.477 557.025L410.802 556L410.027 554.925L409.352 553.9L408.727 552.725L408.052 551.825L407.152 550.625L406.627 549.6L405.852 548.425L405.177 547.525L404.552 546.35L403.752 545.275L403.127 543.975L402.327 543.075L401.702 541.9L401.027 540.825L400.402 539.65L399.602 538.75L398.977 537.575L398.177 536.55L397.677 535.475L396.877 534.45L396.252 533.275L395.452 532.375L394.827 531.175L394.027 530.15L393.527 528.975L392.602 528.075L392.102 526.875L391.302 525.85V580.675H367.227V488.6L367.077 487.775ZM482.677 487.775H556.002V508.75H507.027V523.725H551.027V543.525H507.027V559.4H556.627V580.5H482.802V488.575L482.677 487.775ZM305.327 516.275L304.927 517.45L304.552 518.525L304.027 519.825L303.502 521L303.127 522.175L302.052 524.5L301.552 525.8L301.152 526.875L300.752 528.175L300.252 529.075L299.852 530.375L299.327 531.675L298.827 532.6L298.427 533.9L297.927 534.925L297.527 536.225L296.852 537.4L296.577 538.425L296.077 539.725L295.552 540.925L295.152 541.95L294.652 543.25H316.127L315.627 541.95L315.227 540.775L314.202 538.4L313.802 537.225L313.277 536.2L312.902 534.9L312.377 533.725L311.977 532.55L311.477 531.475L311.077 530.3L310.552 529L310.177 527.975L309.102 525.65L308.877 524.45L308.352 523.275L307.827 521.975L307.452 521.075L306.377 518.475L306.002 517.3L305.327 516.275ZM267.077 690.375H534.102L397.802 735.3L267.077 690.375Z" fill="white"/>
</g>
<defs>
<clipPath id="clip0_1387_6463">
<rect width="800" height="800" fill="white"/>
</clipPath>
</defs>
</svg>
