<svg width="800" height="800" viewBox="0 0 800 800" fill="none" xmlns="http://www.w3.org/2000/svg">
<path d="M399.997 733.333C584.092 733.333 733.331 584.095 733.331 400C733.331 215.905 584.092 66.6667 399.997 66.6667C215.902 66.6667 66.6641 215.905 66.6641 400C66.6641 584.095 215.902 733.333 399.997 733.333Z" fill="#1DA1F2"/>
<path fill-rule="evenodd" clip-rule="evenodd" d="M600 271.81C585.295 278.343 569.468 282.743 552.87 284.73C569.815 274.57 582.828 258.492 588.947 239.333C573.108 248.745 555.523 255.558 536.845 259.252C521.872 243.307 500.527 233.333 476.942 233.333C431.625 233.333 394.88 270.078 394.88 315.395C394.88 321.82 395.613 328.087 397.013 334.1C328.805 330.687 268.342 298.008 227.865 248.358C220.798 260.478 216.758 274.57 216.758 289.61C216.758 318.075 231.225 343.193 253.263 357.912C239.797 357.485 227.158 353.792 216.078 347.645V348.672C216.078 388.443 244.383 421.6 281.902 429.16C275.022 431.027 267.768 432.04 260.29 432.04C254.997 432.04 249.85 431.52 244.837 430.56C255.277 463.158 285.595 486.89 321.498 487.557C293.42 509.555 258.037 522.687 219.585 522.687C212.945 522.687 206.413 522.3 200 521.527C236.318 544.807 279.448 558.405 325.792 558.405C476.728 558.405 559.27 433.36 559.27 324.927C559.27 321.367 559.203 317.822 559.03 314.315C575.082 302.715 589 288.263 600 271.81Z" fill="white"/>
</svg>
