<svg width="800" height="800" viewBox="0 0 800 800" fill="none" xmlns="http://www.w3.org/2000/svg">
<path d="M400 50C206.953 50 50 206.953 50 400C50 593.047 206.953 750 400 750C593.047 750 750 593.047 750 400C750 206.953 593.047 50 400 50Z" fill="#FC471E"/>
<path fill-rule="evenodd" clip-rule="evenodd" d="M500.483 222.738C500.165 224.746 500 226.806 500 228.906C500 250.107 516.79 267.295 537.5 267.295C558.21 267.295 575 250.107 575 228.906C575 207.705 558.21 190.517 537.5 190.517C528.272 190.517 519.823 193.93 513.288 199.59L415.905 175L380.708 319.127C333.885 322.282 291.775 336.798 260.007 358.713C250.988 349.658 238.631 344.073 225 344.073C197.386 344.073 175 366.99 175 395.257C175 414.932 185.841 432.012 201.742 440.58C200.593 446.685 200 452.915 200 459.24C200 536.98 289.542 600 400 600C510.457 600 600 536.98 600 459.24C600 452.915 599.408 446.685 598.258 440.58C614.158 432.012 625 414.932 625 395.257C625 366.99 602.615 344.073 575 344.073C561.37 344.073 549.013 349.658 539.993 358.713C505.383 334.838 458.497 319.743 406.617 318.557L434.095 206.036L500.483 222.738ZM312.5 472.038C333.21 472.038 350 454.85 350 433.647C350 412.445 333.21 395.257 312.5 395.257C291.79 395.257 275 412.445 275 433.647C275 454.85 291.79 472.038 312.5 472.038ZM487.5 472.038C508.21 472.038 525 454.85 525 433.647C525 412.445 508.21 395.257 487.5 395.257C466.79 395.257 450 412.445 450 433.647C450 454.85 466.79 472.038 487.5 472.038ZM319.432 512.575C313.69 508.655 305.93 510.242 302.1 516.122C298.27 522.005 299.823 529.95 305.565 533.87C332.768 552.432 366.385 561.715 400 561.715C433.615 561.715 467.232 552.432 494.432 533.87C500.177 529.95 501.73 522.005 497.9 516.122C494.07 510.242 486.31 508.655 480.565 512.575C457.563 528.272 428.783 536.122 400 536.122C382.932 536.122 365.863 533.363 350 527.843C339.115 524.053 328.795 518.962 319.432 512.575Z" fill="white"/>
</svg>
