<svg width="800" height="800" viewBox="0 0 800 800" fill="none" xmlns="http://www.w3.org/2000/svg">
<path d="M664.454 358.496C664.454 358.496 722.072 361.426 722.072 327.539C722.072 283.301 645.314 243.457 645.314 243.457C645.314 243.457 657.325 217.969 664.845 203.711C672.365 189.453 693.458 133.984 695.314 121.289C697.657 105.273 694.044 100.293 694.044 100.293C688.868 134.473 633.204 232.91 628.712 236.23C574.415 210.84 499.806 203.711 499.806 203.711C499.806 203.711 426.759 50 358.009 50C289.845 50 290.236 181.641 290.236 181.641C290.236 181.641 270.997 144.336 246.779 144.336C211.427 144.336 199.806 197.656 199.806 255.566C130.079 255.566 71.3879 271.191 66.1145 272.656C60.9387 274.121 44.4348 286.133 51.8567 284.668C67.1887 279.785 138.868 268.652 201.564 274.121C205.079 329.102 237.208 400.781 237.208 400.781C237.208 400.781 168.263 500.586 168.263 571.777C168.263 590.527 176.466 624.805 225.88 624.805C267.384 624.805 313.966 599.902 322.657 594.922C315.04 605.762 309.376 626.562 309.376 636.133C309.376 643.945 314.064 666.113 345.997 666.113C387.013 666.113 432.911 634.668 432.911 634.668C432.911 634.668 476.271 706.543 513.282 739.453C523.243 748.34 532.814 750 532.814 750C532.814 750 495.997 714.648 447.56 623.438C492.579 595.703 539.454 530.078 539.454 530.078C539.454 530.078 545.021 530.273 587.794 530.273C654.786 530.273 749.904 516.211 749.904 462.988C750.001 408.105 664.454 358.496 664.454 358.496ZM671.876 325.391C671.876 344.824 653.419 344.629 653.419 344.629L639.357 345.508C639.357 345.508 612.697 331.543 596.486 324.902C596.486 324.902 621.583 286.328 627.443 275.586C631.837 278.223 671.876 303.223 671.876 325.391ZM391.505 127.441C423.048 127.441 467.97 201.66 467.97 201.66C467.97 201.66 397.853 195.41 340.138 229.297C341.7 175.879 359.669 127.441 391.505 127.441ZM266.798 187.598C276.759 187.598 286.525 199.805 290.626 210.059C290.626 216.895 294.142 256.738 294.142 256.738L236.329 254.492C236.329 202.441 256.739 187.598 266.798 187.598ZM260.743 549.414C229.103 549.414 222.657 531.836 222.657 516.016C222.657 480.176 251.271 429.98 251.271 429.98C251.271 429.98 283.4 497.461 339.357 525.879C311.622 542.188 288.673 549.414 260.743 549.414ZM363.38 620.02C341.212 620.02 338.478 605.664 338.478 602.344C338.478 592.09 346.583 579.883 346.583 579.883C346.583 579.883 383.79 554.785 386.134 552.051L413.673 603.418C413.673 603.418 385.548 620.02 363.38 620.02ZM432.521 592.09C419.044 568.555 409.083 543.945 409.083 543.945C409.083 543.945 464.454 547.461 494.24 516.797C475.685 525.098 446.095 535.645 411.72 532.422C483.595 469.141 525.587 423.242 561.036 375.879C558.009 372.168 541.798 360.84 537.794 358.984C516.407 384.766 433.107 473.73 355.958 517.773C258.302 464.551 237.794 308.008 235.743 275.488L289.064 280.566C289.064 280.566 269.044 316.113 269.044 342.285C269.044 368.359 272.169 369.727 272.169 369.727C272.169 369.727 271.486 324.219 299.611 289.062C321.095 403.125 343.458 461.523 360.841 496.387C369.728 492.676 386.232 485.352 386.232 485.352C386.232 485.352 337.013 343.457 339.747 247.461C362.111 235.547 395.216 223.242 432.521 223.242C530.763 223.242 609.767 265.43 609.767 265.43L578.907 308.594C578.907 308.594 551.368 258.789 512.404 249.902C532.911 265.137 555.958 285.352 567.872 314.355C486.427 282.617 388.185 265.82 356.642 262.109C353.907 273.73 354.298 290.332 354.298 290.332C354.298 290.332 486.036 314.648 581.935 369.434C581.251 489.355 450.587 581.445 432.521 592.09ZM557.325 502.441C557.325 502.441 598.243 448.828 597.56 377.734C597.56 377.734 663.673 418.652 663.673 458.594C663.673 503.125 557.325 502.441 557.325 502.441Z" fill="white"/>
</svg>
