<svg xmlns="http://www.w3.org/2000/svg" xmlns:xlink="http://www.w3.org/1999/xlink" width="41" height="33.5" viewBox="0 0 41 33.5">
  <defs>
    <filter id="Icon_awesome-users" x="0" y="0" width="41" height="33.5" filterUnits="userSpaceOnUse">
      <feOffset input="SourceAlpha"/>
      <feGaussianBlur stdDeviation="2.5" result="blur"/>
      <feFlood flood-color="#03d5fb"/>
      <feComposite operator="in" in2="blur"/>
    </filter>
    <filter id="Icon_awesome-users-2" x="0" y="0" width="41" height="33.5" filterUnits="userSpaceOnUse">
      <feOffset input="SourceAlpha"/>
      <feGaussianBlur stdDeviation="2" result="blur-2"/>
      <feFlood flood-color="#03d5fb" result="color"/>
      <feComposite operator="out" in="SourceGraphic" in2="blur-2"/>
      <feComposite operator="in" in="color"/>
      <feComposite operator="in" in2="SourceGraphic"/>
    </filter>
  </defs>
  <g data-type="innerShadowGroup">
    <g transform="matrix(1, 0, 0, 1, 0, 0)" filter="url(#Icon_awesome-users)">
      <path id="Icon_awesome-users-3" data-name="Icon awesome-users" d="M3.75,9.75a2.5,2.5,0,1,0-2.5-2.5A2.5,2.5,0,0,0,3.75,9.75Zm17.5,0a2.5,2.5,0,1,0-2.5-2.5A2.5,2.5,0,0,0,21.25,9.75ZM22.5,11H20a2.493,2.493,0,0,0-1.762.727A5.714,5.714,0,0,1,21.172,16H23.75A1.249,1.249,0,0,0,25,14.75V13.5A2.5,2.5,0,0,0,22.5,11Zm-10,0A4.375,4.375,0,1,0,8.125,6.625,4.373,4.373,0,0,0,12.5,11Zm3,1.25h-.324a6.04,6.04,0,0,1-5.352,0H9.5A4.5,4.5,0,0,0,5,16.75v1.125A1.875,1.875,0,0,0,6.875,19.75h11.25A1.875,1.875,0,0,0,20,17.875V16.75A4.5,4.5,0,0,0,15.5,12.25Zm-8.738-.523A2.493,2.493,0,0,0,5,11H2.5A2.5,2.5,0,0,0,0,13.5v1.25A1.249,1.249,0,0,0,1.25,16H3.824A5.728,5.728,0,0,1,6.762,11.727Z" transform="translate(8 5.75)" fill="none" stroke="#03d5fb" stroke-width="1"/>
    </g>
    <g transform="matrix(1, 0, 0, 1, 0, 0)" filter="url(#Icon_awesome-users-2)">
      <path id="Icon_awesome-users-4" data-name="Icon awesome-users" d="M3.75,9.75a2.5,2.5,0,1,0-2.5-2.5A2.5,2.5,0,0,0,3.75,9.75Zm17.5,0a2.5,2.5,0,1,0-2.5-2.5A2.5,2.5,0,0,0,21.25,9.75ZM22.5,11H20a2.493,2.493,0,0,0-1.762.727A5.714,5.714,0,0,1,21.172,16H23.75A1.249,1.249,0,0,0,25,14.75V13.5A2.5,2.5,0,0,0,22.5,11Zm-10,0A4.375,4.375,0,1,0,8.125,6.625,4.373,4.373,0,0,0,12.5,11Zm3,1.25h-.324a6.04,6.04,0,0,1-5.352,0H9.5A4.5,4.5,0,0,0,5,16.75v1.125A1.875,1.875,0,0,0,6.875,19.75h11.25A1.875,1.875,0,0,0,20,17.875V16.75A4.5,4.5,0,0,0,15.5,12.25Zm-8.738-.523A2.493,2.493,0,0,0,5,11H2.5A2.5,2.5,0,0,0,0,13.5v1.25A1.249,1.249,0,0,0,1.25,16H3.824A5.728,5.728,0,0,1,6.762,11.727Z" transform="translate(8 5.75)" fill="#fff"/>
    </g>
    <path id="Icon_awesome-users-5" data-name="Icon awesome-users" d="M3.75,9.75a2.5,2.5,0,1,0-2.5-2.5A2.5,2.5,0,0,0,3.75,9.75Zm17.5,0a2.5,2.5,0,1,0-2.5-2.5A2.5,2.5,0,0,0,21.25,9.75ZM22.5,11H20a2.493,2.493,0,0,0-1.762.727A5.714,5.714,0,0,1,21.172,16H23.75A1.249,1.249,0,0,0,25,14.75V13.5A2.5,2.5,0,0,0,22.5,11Zm-10,0A4.375,4.375,0,1,0,8.125,6.625,4.373,4.373,0,0,0,12.5,11Zm3,1.25h-.324a6.04,6.04,0,0,1-5.352,0H9.5A4.5,4.5,0,0,0,5,16.75v1.125A1.875,1.875,0,0,0,6.875,19.75h11.25A1.875,1.875,0,0,0,20,17.875V16.75A4.5,4.5,0,0,0,15.5,12.25Zm-8.738-.523A2.493,2.493,0,0,0,5,11H2.5A2.5,2.5,0,0,0,0,13.5v1.25A1.249,1.249,0,0,0,1.25,16H3.824A5.728,5.728,0,0,1,6.762,11.727Z" transform="translate(8 5.75)" fill="none" stroke="#03d5fb" stroke-width="1"/>
  </g>
</svg>
